<?xml version="1.0" encoding="UTF-8"?> <svg xmlns="http://www.w3.org/2000/svg" id="Calque_1" data-name="Calque 1" viewBox="0 0 501 500"><path d="M417,257.91a7.42,7.42,0,0,0-7.42-7.42H333.44v67.38a5.34,5.34,0,0,1-5.34,5.34h0a5.34,5.34,0,0,1-5.34-5.34l-.08-135a20.32,20.32,0,1,0-40.64,0l-.11,189.23a5.52,5.52,0,0,1-11,0L271,128.9a20.56,20.56,0,1,0-41.11,0l-.24,243.18a5.53,5.53,0,0,1-5.89,5.51,5.65,5.65,0,0,1-5.15-5.7V183.25c0-11.39-9.33-20.94-20.72-20.72A20.32,20.32,0,0,0,178,182.85l.09,135a5.34,5.34,0,0,1-5.34,5.34h0a5.34,5.34,0,0,1-5.34-5.34V250.49H91.29a7.42,7.42,0,0,0-7.42,7.42h0a7.42,7.42,0,0,0,7.42,7.42h61.05v52.39c0,11.4,9.33,20.94,20.72,20.72A20.31,20.31,0,0,0,193,318.13l-.09-135a5.34,5.34,0,0,1,5.34-5.34h0a5.34,5.34,0,0,1,5.34,5.34V371.67c0,11.53,9.43,21.18,21,21a20.56,20.56,0,0,0,20.15-20.55l.24-243.18a5.52,5.52,0,1,1,11,0l-.1,243.18a20.56,20.56,0,0,0,41.11,0v-189a5.34,5.34,0,0,1,5.34-5.34h0a5.34,5.34,0,0,1,5.34,5.34l.07,135a20.32,20.32,0,0,0,19.93,20.31c11.39.22,20.71-9.32,20.71-20.72V265.33h61.22a7.42,7.42,0,0,0,7.42-7.42Z" style="fill:#fc705a"></path></svg> 