<?xml version="1.0" encoding="UTF-8"?> <svg xmlns="http://www.w3.org/2000/svg" id="Calque_1" data-name="Calque 1" viewBox="0 0 1026 500"><path d="M336.84,256.48a5.63,5.63,0,0,0-5.63-5.63H273.39V302a4.05,4.05,0,0,1-4.06,4.05h0a4.05,4.05,0,0,1-4.06-4.05l0-102.54a15.43,15.43,0,0,0-30.86,0l-.09,143.7a4.19,4.19,0,1,1-8.38,0L226,158.51a15.61,15.61,0,0,0-31.21,0l-.19,184.67a4.19,4.19,0,0,1-4.47,4.18,4.28,4.28,0,0,1-3.91-4.32V199.79a15.67,15.67,0,0,0-15.73-15.73,15.43,15.43,0,0,0-15.13,15.42L155.39,302a4,4,0,0,1-4,4.05h0a4.05,4.05,0,0,1-4.06-4.05V250.85H89.5a5.63,5.63,0,0,0-5.63,5.63h0a5.63,5.63,0,0,0,5.63,5.64h46.37v39.79a15.68,15.68,0,0,0,15.73,15.73,15.44,15.44,0,0,0,15.13-15.43l-.08-102.53a4.06,4.06,0,0,1,4.06-4.06h0a4.06,4.06,0,0,1,4.06,4.06V342.87a15.85,15.85,0,0,0,15.91,15.91,15.6,15.6,0,0,0,15.3-15.6l.18-184.67a4.2,4.2,0,0,1,8.39,0l-.08,184.67a15.61,15.61,0,1,0,31.21,0V199.68a4.06,4.06,0,0,1,4.06-4.06h0a4.05,4.05,0,0,1,4.05,4.06l.06,102.53A15.44,15.44,0,0,0,269,317.64a15.68,15.68,0,0,0,15.73-15.73V262.12h46.49a5.63,5.63,0,0,0,5.63-5.64Z" style="fill:#fff"></path><path d="M441.36,220.74l-2.89,13.82a18.33,18.33,0,0,0-8.55-2.13c-9.54,0-14.82,9.54-14.82,26v20.48H400.4V220.24H415V232.8c3.14-9.8,9.54-14.07,16.83-14.07A21.57,21.57,0,0,1,441.36,220.74Z" style="fill:#fff"></path><path d="M499.77,254.66H454.3c1.63,8.17,7.91,12.57,16.71,12.57,6.28,0,12.43-2.77,15.82-7.54l9.8,7.41c-5.4,8.54-15.83,13.32-26.5,13.32-17.47,0-30.78-12.56-30.78-30.91,0-18.72,13.94-30.78,30.78-30.78S500,230.67,500,249C500,250.64,499.9,252.53,499.77,254.66Zm-14.19-10.17c-.88-8-7.16-12.82-15.33-12.82-7.79,0-14.19,3.9-15.95,12.82Z" style="fill:#fff"></path><path d="M503.17,260.82h13.69c0,4,3.52,7.79,9.68,7.79,5.78,0,9.54-2.89,9.54-6.66,0-3.27-2.51-4.77-6.91-5.78l-7.78-2c-13.2-3.52-16.59-10.55-16.59-18,0-9.18,9.05-17.47,21.86-17.47,10.43,0,22.24,5.28,22.11,18.34H534.83c0-4-3.64-6.53-7.79-6.53-4.52,0-7.66,2.64-7.66,6.28,0,3,2.89,4.78,6.28,5.53l9.42,2.51c13.19,3.4,15.58,11.69,15.58,17.09,0,11.93-11.94,18.47-23.87,18.47C515.1,280.42,503.42,273.38,503.17,260.82Z" style="fill:#fff"></path><path d="M554.3,249.51c0-18.59,14.45-30.78,31.16-30.78s31.28,12.19,31.28,30.78-14.57,30.91-31.28,30.91S554.3,268.11,554.3,249.51Zm47.74,0c0-10-7.54-17.21-16.58-17.21S569,239.46,569,249.51c0,10.31,7.41,17.34,16.46,17.34S602,259.82,602,249.51Z" style="fill:#fff"></path><path d="M680.44,246v32.92H665.86V247c0-9.42-5.65-14.45-12.18-14.45s-14.95,3.9-14.95,15.2v31.16H624.15V220.24h14.58v9.3c3-7.42,12.18-10.81,18.21-10.81C672,218.73,680.44,228.91,680.44,246Z" style="fill:#fff"></path><path d="M735.59,220.24h14.57v58.67H735.59v-9.17c-3.9,6.41-11.69,10.68-20.1,10.68-15.71,0-28.27-12.69-28.27-30.91,0-17.71,12.06-30.78,28.64-30.78,8,0,15.83,3.52,19.73,9.68Zm-.25,29.27a17.18,17.18,0,0,0-17-17.21c-9.43,0-16.59,7.79-16.59,17.21s7.16,17.34,16.71,17.34A17.11,17.11,0,0,0,735.34,249.51Z" style="fill:#fff"></path><path d="M817.5,246v32.92H802.92V247c0-9.42-5.65-14.45-12.18-14.45s-15,3.9-15,15.2v31.16H761.22V220.24h14.57v9.3c3-7.42,12.19-10.81,18.22-10.81C809.08,218.73,817.5,228.91,817.5,246Z" style="fill:#fff"></path><path d="M824,249.51c0-18.59,15-30.78,31.91-30.78A29.94,29.94,0,0,1,879.81,230l-10.3,8.17a17.43,17.43,0,0,0-13.32-5.91c-10.17,0-17.46,7.29-17.46,17.21s7.29,17.34,17.46,17.34a17.43,17.43,0,0,0,13.32-5.91l10.3,8.17a29.91,29.91,0,0,1-23.87,11.31C839,280.42,824,268.11,824,249.51Z" style="fill:#fff"></path><path d="M941.75,254.66H896.27c1.64,8.17,7.92,12.57,16.71,12.57,6.28,0,12.44-2.77,15.83-7.54l9.8,7.41c-5.4,8.54-15.83,13.32-26.51,13.32-17.46,0-30.78-12.56-30.78-30.91,0-18.72,13.95-30.78,30.78-30.78S942,230.67,942,249C942,250.64,941.88,252.53,941.75,254.66Zm-14.2-10.17c-.88-8-7.16-12.82-15.32-12.82-7.79,0-14.2,3.9-16,12.82Z" style="fill:#fff"></path></svg> 