<?xml version="1.0" encoding="UTF-8"?> <svg xmlns="http://www.w3.org/2000/svg" id="Calque_1" data-name="Calque 1" viewBox="0 0 1000.56 264.31"><path d="M415.71,180.31v55.83H404.07v-36l-16.43,36h-7.82l-16.34-35.81v35.81H351.83V180.31h14.6L384,219.15l17.55-38.84Z" transform="translate(-30.35 -46.69)" style="fill:#033333"></path><path d="M467.23,196.74v39.4H455.82v-5.27a13.45,13.45,0,0,1-5.46,4.63,17.71,17.71,0,0,1-14.67,0,18.65,18.65,0,0,1-5.9-4.35,19.89,19.89,0,0,1-4-6.54,22.79,22.79,0,0,1-1.44-8.17,22.51,22.51,0,0,1,1.44-8.14,20.64,20.64,0,0,1,4-6.54,18.29,18.29,0,0,1,5.9-4.38,17,17,0,0,1,7.37-1.6,17.68,17.68,0,0,1,7.3,1.52,12.8,12.8,0,0,1,5.46,4.54v-5.1ZM436,216.44a10,10,0,0,0,.79,4,10.65,10.65,0,0,0,2.16,3.22,9.63,9.63,0,0,0,3.19,2.2,10.33,10.33,0,0,0,8,0,9.74,9.74,0,0,0,3.19-2.2,10.84,10.84,0,0,0,2.16-3.22,10.47,10.47,0,0,0,0-8,11,11,0,0,0-2.16-3.23A10.18,10.18,0,0,0,442.11,207a9.76,9.76,0,0,0-3.19,2.19,10.82,10.82,0,0,0-2.16,3.23A9.9,9.9,0,0,0,436,216.44Z" transform="translate(-30.35 -46.69)" style="fill:#033333"></path><path d="M502.32,208.06a7.11,7.11,0,0,0-2.95-.47,9.21,9.21,0,0,0-7.58,3.34q-2.71,3.36-2.71,9.18v16H477.51v-39.4H489v6.46a12.7,12.7,0,0,1,4.54-5.38,12,12,0,0,1,6.78-2,9.94,9.94,0,0,1,1.24.08,3.73,3.73,0,0,1,.76.16Z" transform="translate(-30.35 -46.69)" style="fill:#033333"></path><path d="M521.85,205a4.38,4.38,0,0,0-2.63.76,2.33,2.33,0,0,0-1,2q0,2.15,3.27,3l4.94,1.27a17.72,17.72,0,0,1,8.49,4.43,10,10,0,0,1,2.91,7.21,12.27,12.27,0,0,1-1.19,5.43,12.84,12.84,0,0,1-3.31,4.26,15.45,15.45,0,0,1-5,2.8,19.55,19.55,0,0,1-6.34,1,20.08,20.08,0,0,1-10.28-2.55,15,15,0,0,1-6.38-7.1l9.41-5.18a9.5,9.5,0,0,0,3.11,3.91,7.15,7.15,0,0,0,4.22,1.43,5.08,5.08,0,0,0,3-.8,2.55,2.55,0,0,0,1.16-2.23q0-2.07-3.59-3L518,220.58Q506.7,218,506.7,208.46a11.79,11.79,0,0,1,4.23-9.17,15,15,0,0,1,4.82-2.63,19.16,19.16,0,0,1,6.18-1,18.2,18.2,0,0,1,5,.68,20.1,20.1,0,0,1,4.47,1.87,16.17,16.17,0,0,1,3.66,2.88,13.59,13.59,0,0,1,2.56,3.74l-9.49,5a8,8,0,0,0-2.64-3.55A5.91,5.91,0,0,0,521.85,205Z" transform="translate(-30.35 -46.69)" style="fill:#033333"></path><path d="M582.14,226.73a18.52,18.52,0,0,1-7.13,7.65,21.29,21.29,0,0,1-11.13,2.79,22.77,22.77,0,0,1-8.45-1.51,19,19,0,0,1-6.58-4.27,19.58,19.58,0,0,1-4.31-6.58,22.15,22.15,0,0,1-1.55-8.37,21.69,21.69,0,0,1,1.55-8.26,20.3,20.3,0,0,1,4.31-6.58,19.5,19.5,0,0,1,6.46-4.34,20.65,20.65,0,0,1,8.09-1.56,20.92,20.92,0,0,1,8.18,1.56,18.32,18.32,0,0,1,6.34,4.34,20.12,20.12,0,0,1,4.1,6.66,23.53,23.53,0,0,1,1.48,8.5c0,.69,0,1.27,0,1.75a9.83,9.83,0,0,1-.12,1.12h-29a8.08,8.08,0,0,0,1,3.19,8.56,8.56,0,0,0,2.11,2.51,9.88,9.88,0,0,0,2.95,1.67,10,10,0,0,0,3.47.6,9.21,9.21,0,0,0,5.18-1.27,11,11,0,0,0,3.28-3.51Zm-10-14.68a7.9,7.9,0,0,0-2.8-5.22,9.58,9.58,0,0,0-9.25-1.44,9.44,9.44,0,0,0-2.71,1.64,9.22,9.22,0,0,0-2,2.31,6.67,6.67,0,0,0-.92,2.71Z" transform="translate(-30.35 -46.69)" style="fill:#033333"></path><path d="M603.52,185.34a6.71,6.71,0,0,1-2,4.74,7.42,7.42,0,0,1-2.15,1.48,6.78,6.78,0,0,1-5.35,0,7.42,7.42,0,0,1-2.15-1.48,6.75,6.75,0,0,1,0-9.49,7.2,7.2,0,0,1,2.15-1.47,6.67,6.67,0,0,1,5.35,0,7.2,7.2,0,0,1,2.15,1.47,6.71,6.71,0,0,1,2,4.75Zm-12.6,50.8v-39.4h11.64v39.4Z" transform="translate(-30.35 -46.69)" style="fill:#033333"></path><path d="M624.41,180.31v55.83H612.77V180.31Z" transform="translate(-30.35 -46.69)" style="fill:#033333"></path><path d="M646.26,180.31v55.83H634.61V180.31Z" transform="translate(-30.35 -46.69)" style="fill:#033333"></path><path d="M693.31,226.73a18.55,18.55,0,0,1-7.14,7.65,21.28,21.28,0,0,1-11.12,2.79,22.78,22.78,0,0,1-8.46-1.51,19.14,19.14,0,0,1-6.58-4.27,19.56,19.56,0,0,1-4.3-6.58,22,22,0,0,1-1.56-8.37,21.5,21.5,0,0,1,1.56-8.26,20.28,20.28,0,0,1,4.3-6.58,19.6,19.6,0,0,1,6.46-4.34,20.66,20.66,0,0,1,8.1-1.56,20.87,20.87,0,0,1,8.17,1.56,18.23,18.23,0,0,1,6.34,4.34,20.14,20.14,0,0,1,4.11,6.66,23.74,23.74,0,0,1,1.47,8.5c0,.69,0,1.27,0,1.75a6.69,6.69,0,0,1-.12,1.12H665.56a7.91,7.91,0,0,0,1,3.19,8.6,8.6,0,0,0,2.12,2.51,9.76,9.76,0,0,0,3,1.67,10,10,0,0,0,3.47.6,9.24,9.24,0,0,0,5.18-1.27,11,11,0,0,0,3.27-3.51Zm-10-14.68a7.93,7.93,0,0,0-2.79-5.22,8.91,8.91,0,0,0-6-2,8.8,8.8,0,0,0-3.27.6,9.31,9.31,0,0,0-2.71,1.64,9.48,9.48,0,0,0-2,2.31,6.65,6.65,0,0,0-.91,2.71Z" transform="translate(-30.35 -46.69)" style="fill:#033333"></path><path d="M364,160.39h-8.49V120.52h13.27a19.44,19.44,0,0,1,5.93.85,13.2,13.2,0,0,1,4.58,2.48,11.36,11.36,0,0,1,3,4,13,13,0,0,1,1.08,5.44,11.28,11.28,0,0,1-2.31,7.2,13.36,13.36,0,0,1-5.9,4.3l11,15.61H376.05l-9.8-14.58H364Zm0-21.64h4.84a6.44,6.44,0,0,0,4.25-1.4,4.79,4.79,0,0,0,1.68-3.9,4.68,4.68,0,0,0-1.68-3.9,6.57,6.57,0,0,0-4.25-1.34H364Z" transform="translate(-30.35 -46.69)" style="fill:#b3b3b3"></path><path d="M415.12,153.67a13.17,13.17,0,0,1-5.09,5.47,15.23,15.23,0,0,1-7.95,2,16.31,16.31,0,0,1-6-1.08,13.69,13.69,0,0,1-4.7-3.05,14,14,0,0,1-3.07-4.7,15.53,15.53,0,0,1-1.12-6,15.15,15.15,0,0,1,1.12-5.89,14.34,14.34,0,0,1,3.07-4.7,14,14,0,0,1,4.62-3.11,14.78,14.78,0,0,1,5.78-1.11,15,15,0,0,1,5.84,1.11,13.09,13.09,0,0,1,4.52,3.11,14.26,14.26,0,0,1,2.94,4.75,17,17,0,0,1,1,6.07c0,.49,0,.91,0,1.25a6.08,6.08,0,0,1-.08.8H395.3a5.77,5.77,0,0,0,.68,2.28,6.29,6.29,0,0,0,1.51,1.79,7.19,7.19,0,0,0,4.59,1.63,6.56,6.56,0,0,0,3.7-.92,7.84,7.84,0,0,0,2.34-2.5ZM408,143.19a5.65,5.65,0,0,0-2-3.73,6.36,6.36,0,0,0-4.27-1.46,6.44,6.44,0,0,0-2.34.43,6.87,6.87,0,0,0-1.93,1.17,6.61,6.61,0,0,0-1.4,1.65,4.7,4.7,0,0,0-.65,1.94Z" transform="translate(-30.35 -46.69)" style="fill:#b3b3b3"></path><path d="M430.9,138.18a3.1,3.1,0,0,0-1.88.54,1.65,1.65,0,0,0-.74,1.39c0,1,.78,1.75,2.34,2.17l3.53.91a12.62,12.62,0,0,1,6.06,3.16,7.09,7.09,0,0,1,2.08,5.15,8.79,8.79,0,0,1-.85,3.88,9.35,9.35,0,0,1-2.36,3.05,11.06,11.06,0,0,1-3.59,2,14.06,14.06,0,0,1-4.53.71,14.41,14.41,0,0,1-7.35-1.82,10.78,10.78,0,0,1-4.56-5.07l6.72-3.7a7,7,0,0,0,2.23,2.79,5.06,5.06,0,0,0,3,1,3.67,3.67,0,0,0,2.13-.57,1.83,1.83,0,0,0,.83-1.59c0-1-.86-1.69-2.57-2.11l-3.3-.8q-8-1.87-8-8.66a8.35,8.35,0,0,1,.8-3.67,8.45,8.45,0,0,1,2.22-2.88,10.72,10.72,0,0,1,3.44-1.88,13.89,13.89,0,0,1,4.42-.68,13,13,0,0,1,3.53.48,14.34,14.34,0,0,1,3.19,1.34,11.77,11.77,0,0,1,2.62,2,9.7,9.7,0,0,1,1.82,2.68l-6.78,3.59a5.56,5.56,0,0,0-1.88-2.53A4.2,4.2,0,0,0,430.9,138.18Z" transform="translate(-30.35 -46.69)" style="fill:#b3b3b3"></path><path d="M446,146.32a14.5,14.5,0,0,1,4.38-10.54,15,15,0,0,1,4.84-3.13,16.57,16.57,0,0,1,12.08,0,15,15,0,0,1,4.84,3.13,14.77,14.77,0,0,1,0,21.08A15,15,0,0,1,467.3,160a16.57,16.57,0,0,1-12.08,0,15,15,0,0,1-4.84-3.13A14.5,14.5,0,0,1,446,146.32Zm8.2,0a7,7,0,0,0,.57,2.85,7.62,7.62,0,0,0,1.51,2.28A7,7,0,0,0,458.5,153a6.68,6.68,0,0,0,2.76.57A6.83,6.83,0,0,0,464,153a7.14,7.14,0,0,0,2.25-1.54,7.81,7.81,0,0,0,1.51-2.28,7.53,7.53,0,0,0,0-5.7,7.81,7.81,0,0,0-1.51-2.28,7.12,7.12,0,0,0-2.25-1.53,6.83,6.83,0,0,0-2.74-.57,6.68,6.68,0,0,0-2.76.57,7,7,0,0,0-2.22,1.53,7.62,7.62,0,0,0-1.51,2.28A7.11,7.11,0,0,0,454.2,146.32Z" transform="translate(-30.35 -46.69)" style="fill:#b3b3b3"></path><path d="M490.48,160.39h-8.31V132.25h8.31v3.59a9.33,9.33,0,0,1,3.39-3.19,10.12,10.12,0,0,1,4.93-1.14,9.69,9.69,0,0,1,7.6,3.08q2.78,3.07,2.77,8.43v17.37h-8.32V145a6.39,6.39,0,0,0-1.31-4.3,4.73,4.73,0,0,0-3.76-1.51,4.82,4.82,0,0,0-3.84,1.68,6.87,6.87,0,0,0-1.46,4.65Z" transform="translate(-30.35 -46.69)" style="fill:#b3b3b3"></path><path d="M545.11,132.25v28.14H537v-3.76a9.54,9.54,0,0,1-3.91,3.31,12.2,12.2,0,0,1-5.21,1.13,12.37,12.37,0,0,1-5.27-1.13,13.33,13.33,0,0,1-4.21-3.11,14.33,14.33,0,0,1-2.82-4.67,16.19,16.19,0,0,1-1-5.84,16,16,0,0,1,1-5.81,14.76,14.76,0,0,1,2.82-4.67,13.09,13.09,0,0,1,4.21-3.13,12.23,12.23,0,0,1,5.27-1.14,12.63,12.63,0,0,1,5.21,1.08A9.12,9.12,0,0,1,537,135.9v-3.65Zm-22.33,14.07a7,7,0,0,0,.57,2.85,7.72,7.72,0,0,0,1.54,2.31,7.19,7.19,0,0,0,10.25,0,7.72,7.72,0,0,0,1.54-2.31,7.41,7.41,0,0,0,0-5.7,7.55,7.55,0,0,0-1.54-2.3,6.88,6.88,0,0,0-2.28-1.57,7.39,7.39,0,0,0-5.69,0,6.88,6.88,0,0,0-2.28,1.57,7.55,7.55,0,0,0-1.54,2.3A7.11,7.11,0,0,0,522.78,146.32Z" transform="translate(-30.35 -46.69)" style="fill:#b3b3b3"></path><path d="M560.78,160.39h-8.32V132.25h8.32v3.59a9.17,9.17,0,0,1,3.39-3.19,10,10,0,0,1,4.92-1.14,9.73,9.73,0,0,1,7.61,3.08q2.76,3.07,2.76,8.43v17.37h-8.32V145a6.34,6.34,0,0,0-1.31-4.3,4.72,4.72,0,0,0-3.76-1.51,4.83,4.83,0,0,0-3.84,1.68,6.87,6.87,0,0,0-1.45,4.65Z" transform="translate(-30.35 -46.69)" style="fill:#b3b3b3"></path><path d="M584.81,146.32a15.15,15.15,0,0,1,1.12-5.89,13.93,13.93,0,0,1,7.86-7.81,16.66,16.66,0,0,1,9.74-.68,11.71,11.71,0,0,1,3.39,1.34v7.8a10.4,10.4,0,0,0-6.1-2.05,8.39,8.39,0,0,0-3.05.54,7.51,7.51,0,0,0-2.42,1.51,6.91,6.91,0,0,0-1.59,2.31,7.82,7.82,0,0,0,0,5.86,6.72,6.72,0,0,0,1.59,2.31,7.34,7.34,0,0,0,2.42,1.51,8.39,8.39,0,0,0,3.05.54,9.2,9.2,0,0,0,3.25-.6,11.71,11.71,0,0,0,2.9-1.56v7.86a12.85,12.85,0,0,1-3.56,1.39,16.62,16.62,0,0,1-9.65-.65,14.24,14.24,0,0,1-4.73-3,13.49,13.49,0,0,1-3.1-4.67A15.73,15.73,0,0,1,584.81,146.32Z" transform="translate(-30.35 -46.69)" style="fill:#b3b3b3"></path><path d="M639.1,153.67a13.25,13.25,0,0,1-5.1,5.47,15.17,15.17,0,0,1-7.94,2,16.27,16.27,0,0,1-6-1.08,13.69,13.69,0,0,1-4.7-3.05,14.06,14.06,0,0,1-3.08-4.7,15.72,15.72,0,0,1-1.11-6,15.33,15.33,0,0,1,1.11-5.89,14.36,14.36,0,0,1,3.08-4.7,14.05,14.05,0,0,1,4.61-3.11,15.76,15.76,0,0,1,11.62,0,13,13,0,0,1,4.53,3.11,14.24,14.24,0,0,1,2.93,4.75,16.75,16.75,0,0,1,1.06,6.07c0,.49,0,.91,0,1.25s0,.61-.08.8H619.28a5.61,5.61,0,0,0,.68,2.28,6.14,6.14,0,0,0,1.51,1.79,7.19,7.19,0,0,0,4.59,1.63,6.58,6.58,0,0,0,3.7-.92,7.7,7.7,0,0,0,2.33-2.5Zm-7.18-10.48a5.64,5.64,0,0,0-2-3.73,6.84,6.84,0,0,0-6.61-1,6.92,6.92,0,0,0-1.94,1.17,6.78,6.78,0,0,0-1.39,1.65,4.87,4.87,0,0,0-.66,1.94Z" transform="translate(-30.35 -46.69)" style="fill:#b3b3b3"></path><path d="M717.18,180.31H737.6a23.36,23.36,0,0,1,7.09,1,16.85,16.85,0,0,1,5.63,3A13.21,13.21,0,0,1,754,189a14.79,14.79,0,0,1,1.32,6.38,12.11,12.11,0,0,1-1.75,6.54,12.38,12.38,0,0,1-4.79,4.39,15,15,0,0,1,7.34,5.14,13.7,13.7,0,0,1,2.55,8.34,16.23,16.23,0,0,1-1.4,6.86,14.42,14.42,0,0,1-3.94,5.14,17.67,17.67,0,0,1-6.26,3.23,28.8,28.8,0,0,1-8.26,1.12H717.18Zm19.22,22.25a8.25,8.25,0,0,0,5.14-1.55,6.17,6.17,0,0,0,0-9.17,8.19,8.19,0,0,0-5.14-1.56h-7.5v12.28Zm1.67,23.53a9.9,9.9,0,0,0,6.14-1.76,6.9,6.9,0,0,0,0-10.32,9.73,9.73,0,0,0-6.14-1.8H728.9v13.88Z" transform="translate(-30.35 -46.69)" style="fill:#fc705a"></path><path d="M792.38,196.74H804v39.4H792.38v-5a12.86,12.86,0,0,1-4.66,4.43,13.71,13.71,0,0,1-6.82,1.63q-6.78,0-10.61-4.3t-3.83-11.81V196.74h11.65v21.53a9.17,9.17,0,0,0,1.79,6.06,6.31,6.31,0,0,0,5.14,2.16,6.65,6.65,0,0,0,5.35-2.36,9.85,9.85,0,0,0,2-6.58Z" transform="translate(-30.35 -46.69)" style="fill:#fc705a"></path><path d="M827.15,205a4.38,4.38,0,0,0-2.63.76,2.34,2.34,0,0,0-1,2q0,2.15,3.27,3l5,1.27a17.72,17.72,0,0,1,8.49,4.43,10,10,0,0,1,2.91,7.21,12.28,12.28,0,0,1-1.2,5.43,12.81,12.81,0,0,1-3.3,4.26,15.45,15.45,0,0,1-5,2.8,19.55,19.55,0,0,1-6.34,1,20.14,20.14,0,0,1-10.29-2.55,15,15,0,0,1-6.38-7.1l9.41-5.18a9.58,9.58,0,0,0,3.11,3.91,7.16,7.16,0,0,0,4.23,1.43,5.1,5.1,0,0,0,3-.8,2.55,2.55,0,0,0,1.16-2.23q0-2.07-3.59-3l-4.63-1.12Q812,218,812,208.46a11.79,11.79,0,0,1,4.23-9.17,14.77,14.77,0,0,1,4.82-2.63,19.16,19.16,0,0,1,6.18-1,18.07,18.07,0,0,1,4.94.68,19.71,19.71,0,0,1,4.47,1.87,16.23,16.23,0,0,1,3.67,2.88,13.78,13.78,0,0,1,2.55,3.74l-9.49,5a7.92,7.92,0,0,0-2.63-3.55A5.93,5.93,0,0,0,827.15,205Z" transform="translate(-30.35 -46.69)" style="fill:#fc705a"></path><path d="M862.8,185.34a6.71,6.71,0,0,1-2,4.74,7.29,7.29,0,0,1-2.15,1.48,6.76,6.76,0,0,1-5.34,0,7.47,7.47,0,0,1-2.16-1.48,6.75,6.75,0,0,1,0-9.49,7.25,7.25,0,0,1,2.16-1.47,6.65,6.65,0,0,1,5.34,0,7.08,7.08,0,0,1,2.15,1.47,6.71,6.71,0,0,1,2,4.75Zm-12.6,50.8v-39.4h11.64v39.4Z" transform="translate(-30.35 -46.69)" style="fill:#fc705a"></path><path d="M883.69,236.14H872.05v-39.4h11.64v5a12.85,12.85,0,0,1,4.75-4.46,14.17,14.17,0,0,1,6.89-1.6q6.78,0,10.65,4.31t3.87,11.8v24.33H898.21V214.52a8.93,8.93,0,0,0-1.84-6,6.58,6.58,0,0,0-5.26-2.11,6.73,6.73,0,0,0-5.38,2.35,9.61,9.61,0,0,0-2,6.5Z" transform="translate(-30.35 -46.69)" style="fill:#fc705a"></path><path d="M956.5,226.73a18.59,18.59,0,0,1-7.13,7.65,21.31,21.31,0,0,1-11.13,2.79,22.77,22.77,0,0,1-8.45-1.51,19,19,0,0,1-6.58-4.27,19.58,19.58,0,0,1-4.31-6.58,22,22,0,0,1-1.55-8.37,21.5,21.5,0,0,1,1.55-8.26,20.3,20.3,0,0,1,4.31-6.58,19.4,19.4,0,0,1,6.46-4.34,20.65,20.65,0,0,1,8.09-1.56,20.92,20.92,0,0,1,8.18,1.56,18.32,18.32,0,0,1,6.34,4.34,20.12,20.12,0,0,1,4.1,6.66,23.53,23.53,0,0,1,1.48,8.5c0,.69,0,1.27,0,1.75a9.83,9.83,0,0,1-.12,1.12h-29a7.77,7.77,0,0,0,1,3.19,8.56,8.56,0,0,0,2.11,2.51,9.88,9.88,0,0,0,2.95,1.67,10,10,0,0,0,3.47.6,9.21,9.21,0,0,0,5.18-1.27,10.86,10.86,0,0,0,3.27-3.51Zm-10-14.68a7.85,7.85,0,0,0-2.79-5.22,8.89,8.89,0,0,0-6-2,8.8,8.8,0,0,0-3.27.6A9.44,9.44,0,0,0,931.7,207a9.22,9.22,0,0,0-2,2.31,6.52,6.52,0,0,0-.92,2.71Z" transform="translate(-30.35 -46.69)" style="fill:#fc705a"></path><path d="M978.59,205a4.38,4.38,0,0,0-2.63.76,2.34,2.34,0,0,0-1,2q0,2.15,3.27,3l4.95,1.27a17.72,17.72,0,0,1,8.49,4.43,10,10,0,0,1,2.91,7.21,12.28,12.28,0,0,1-1.2,5.43,12.81,12.81,0,0,1-3.3,4.26,15.45,15.45,0,0,1-5,2.8,19.55,19.55,0,0,1-6.34,1,20.14,20.14,0,0,1-10.29-2.55,15,15,0,0,1-6.38-7.1l9.41-5.18a9.58,9.58,0,0,0,3.11,3.91,7.16,7.16,0,0,0,4.23,1.43,5.1,5.1,0,0,0,3-.8,2.55,2.55,0,0,0,1.16-2.23q0-2.07-3.59-3l-4.63-1.12q-11.23-2.62-11.24-12.12a11.7,11.7,0,0,1,4.23-9.17,14.77,14.77,0,0,1,4.82-2.63,19.16,19.16,0,0,1,6.18-1,18.2,18.2,0,0,1,5,.68,19.82,19.82,0,0,1,4.46,1.87,16.23,16.23,0,0,1,3.67,2.88,13.78,13.78,0,0,1,2.55,3.74l-9.49,5a7.92,7.92,0,0,0-2.63-3.55A5.93,5.93,0,0,0,978.59,205Z" transform="translate(-30.35 -46.69)" style="fill:#fc705a"></path><path d="M1015,205a4.38,4.38,0,0,0-2.63.76,2.33,2.33,0,0,0-1,2q0,2.15,3.27,3l4.94,1.27a17.72,17.72,0,0,1,8.49,4.43,10,10,0,0,1,2.92,7.21,12.28,12.28,0,0,1-1.2,5.43,12.84,12.84,0,0,1-3.31,4.26,15.4,15.4,0,0,1-5,2.8,19.66,19.66,0,0,1-6.35,1,20.08,20.08,0,0,1-10.28-2.55,15,15,0,0,1-6.38-7.1l9.41-5.18a9.5,9.5,0,0,0,3.11,3.91,7.13,7.13,0,0,0,4.22,1.43,5.13,5.13,0,0,0,3-.8,2.55,2.55,0,0,0,1.15-2.23c0-1.38-1.19-2.36-3.59-3l-4.62-1.12Q999.8,218,999.8,208.46a11.79,11.79,0,0,1,4.23-9.17,15,15,0,0,1,4.82-2.63,19.16,19.16,0,0,1,6.18-1,18.15,18.15,0,0,1,5,.68,20.1,20.1,0,0,1,4.47,1.87,16.17,16.17,0,0,1,3.66,2.88,13.59,13.59,0,0,1,2.56,3.74l-9.5,5a7.92,7.92,0,0,0-2.63-3.55A5.91,5.91,0,0,0,1015,205Z" transform="translate(-30.35 -46.69)" style="fill:#fc705a"></path><circle cx="132.16" cy="132.16" r="132.16" style="fill:#e6e6e6;opacity:0.4"></circle><circle cx="131.86" cy="132.2" r="117.34" style="fill:#fc705a"></circle><path d="M246,173.55a3.74,3.74,0,0,0-3.74-3.74H204v33.91a2.68,2.68,0,0,1-2.68,2.68h0a2.68,2.68,0,0,1-2.69-2.68l0-67.94a10.23,10.23,0,0,0-20.45,0L178.06,231a2.78,2.78,0,0,1-5.56,0l.05-122.36a10.34,10.34,0,0,0-20.68,0L151.75,231a2.79,2.79,0,0,1-3,2.78,2.85,2.85,0,0,1-2.59-2.87V136a10.38,10.38,0,0,0-10.42-10.42,10.22,10.22,0,0,0-10,10.22l.05,67.94a2.68,2.68,0,0,1-2.69,2.68h0a2.68,2.68,0,0,1-2.68-2.68V169.81H82.13a3.74,3.74,0,0,0-3.73,3.74h0a3.73,3.73,0,0,0,3.73,3.73h30.72v26.36a10.39,10.39,0,0,0,10.43,10.43,10.22,10.22,0,0,0,10-10.22l-.05-67.94a2.7,2.7,0,0,1,2.69-2.69h0a2.7,2.7,0,0,1,2.69,2.69v94.88a10.5,10.5,0,0,0,10.54,10.54A10.34,10.34,0,0,0,159.31,231l.12-122.36a2.78,2.78,0,0,1,5.56,0L164.94,231a10.34,10.34,0,1,0,20.68,0V135.91a2.7,2.7,0,0,1,2.69-2.69h0a2.7,2.7,0,0,1,2.69,2.69l0,67.94a10.22,10.22,0,0,0,10,10.22,10.38,10.38,0,0,0,10.42-10.43V177.28h30.8a3.73,3.73,0,0,0,3.74-3.73Z" transform="translate(-30.35 -46.69)" style="fill:#fff"></path></svg> 