<?xml version="1.0" encoding="UTF-8"?> <svg xmlns="http://www.w3.org/2000/svg" id="Calque_1" data-name="Calque 1" viewBox="0 0 625 500"><path d="M163.09,271.43l-1.88,9a11.84,11.84,0,0,0-5.53-1.38c-6.19,0-9.62,6.19-9.62,16.86v13.28h-9.53v-38H146v8.14c2-6.35,6.19-9.12,10.92-9.12A14,14,0,0,1,163.09,271.43Z" style="fill:#fc705a"></path><path d="M201,293.43H171.48c1.06,5.29,5.13,8.14,10.83,8.14a12.65,12.65,0,0,0,10.27-4.88l6.35,4.8c-3.5,5.54-10.26,8.64-17.19,8.64-11.32,0-20-8.15-20-20,0-12.14,9-20,20-20s19.39,7.74,19.39,19.63C201.13,290.82,201.05,292,201,293.43Zm-9.21-6.6c-.57-5.21-4.64-8.31-9.94-8.31-5,0-9.2,2.53-10.34,8.31Z" style="fill:#fc705a"></path><path d="M203.17,297.42h8.88c0,2.61,2.28,5.05,6.27,5.05,3.75,0,6.19-1.87,6.19-4.32,0-2.12-1.63-3.09-4.48-3.74L215,293.1c-8.55-2.28-10.75-6.84-10.75-11.65,0-5.94,5.86-11.32,14.17-11.32,6.76,0,14.42,3.42,14.34,11.89h-9.05c0-2.6-2.36-4.23-5.05-4.23-2.93,0-5,1.71-5,4.07,0,2,1.87,3.1,4.07,3.58l6.11,1.63c8.55,2.2,10.1,7.58,10.1,11.08,0,7.74-7.74,12-15.48,12C210.91,310.13,203.33,305.56,203.17,297.42Z" style="fill:#fc705a"></path><path d="M236.32,290.09c0-12.06,9.37-20,20.2-20s20.29,7.9,20.29,20-9.45,20-20.29,20S236.32,302.14,236.32,290.09Zm30.95,0a10.78,10.78,0,0,0-10.75-11.16c-5.86,0-10.67,4.64-10.67,11.16,0,6.68,4.81,11.24,10.67,11.24S267.27,296.77,267.27,290.09Z" style="fill:#fc705a"></path><path d="M318.11,287.81v21.34h-9.45V288.46c0-6.11-3.67-9.37-7.9-9.37s-9.7,2.53-9.7,9.86v20.2h-9.45v-38h9.45v6c2-4.81,7.9-7,11.81-7C312.65,270.13,318.11,276.73,318.11,287.81Z" style="fill:#fc705a"></path><path d="M353.87,271.11h9.45v38h-9.45V303.2a15.33,15.33,0,0,1-13,6.93c-10.18,0-18.33-8.23-18.33-20,0-11.49,7.82-20,18.58-20,5.21,0,10.26,2.28,12.79,6.27Zm-.17,19a11.13,11.13,0,0,0-11-11.16,11.21,11.21,0,0,0,.08,22.4A11.09,11.09,0,0,0,353.7,290.09Z" style="fill:#fc705a"></path><path d="M407,287.81v21.34h-9.45V288.46c0-6.11-3.67-9.37-7.9-9.37s-9.7,2.53-9.7,9.86v20.2h-9.45v-38h9.45v6c2-4.81,7.9-7,11.81-7C401.52,270.13,407,276.73,407,287.81Z" style="fill:#fc705a"></path><path d="M411.21,290.09c0-12.06,9.7-20,20.69-20a19.41,19.41,0,0,1,15.48,7.33l-6.68,5.3a11.27,11.27,0,0,0-8.63-3.83c-6.6,0-11.33,4.72-11.33,11.16a11,11,0,0,0,11.33,11.24,11.3,11.3,0,0,0,8.63-3.83l6.68,5.3a19.44,19.44,0,0,1-15.48,7.33C420.91,310.13,411.21,302.14,411.21,290.09Z" style="fill:#fc705a"></path><path d="M487.54,293.43H458.05c1.06,5.29,5.14,8.14,10.84,8.14a12.64,12.64,0,0,0,10.26-4.88l6.35,4.8c-3.5,5.54-10.26,8.64-17.18,8.64-11.33,0-20-8.15-20-20,0-12.14,9-20,20-20s19.38,7.74,19.38,19.63C487.7,290.82,487.62,292,487.54,293.43Zm-9.2-6.6c-.57-5.21-4.65-8.31-9.94-8.31-5,0-9.21,2.53-10.35,8.31Z" style="fill:#fc705a"></path><path d="M390.83,173.24a3.51,3.51,0,0,0-3.51-3.51h-36v31.89a2.54,2.54,0,0,1-2.53,2.53h0a2.53,2.53,0,0,1-2.53-2.53l0-63.9a9.62,9.62,0,1,0-19.23,0l0,89.55a2.62,2.62,0,1,1-5.23,0l.05-115.09a9.73,9.73,0,1,0-19.45,0l-.12,115.09a2.61,2.61,0,0,1-2.79,2.61,2.67,2.67,0,0,1-2.43-2.7V137.91a9.78,9.78,0,0,0-9.81-9.81,9.62,9.62,0,0,0-9.43,9.62l.05,63.9a2.54,2.54,0,0,1-2.53,2.53h0a2.53,2.53,0,0,1-2.53-2.53V169.73h-36a3.51,3.51,0,0,0-3.51,3.51h0a3.51,3.51,0,0,0,3.51,3.51h28.9v24.8a9.76,9.76,0,0,0,9.8,9.8,9.61,9.61,0,0,0,9.43-9.61l0-63.9a2.52,2.52,0,0,1,2.52-2.53h0a2.53,2.53,0,0,1,2.53,2.53v89.24a9.88,9.88,0,0,0,9.92,9.92,9.73,9.73,0,0,0,9.53-9.73l.12-115.09a2.62,2.62,0,0,1,5.23,0l-.05,115.09a9.73,9.73,0,1,0,19.45,0V137.84a2.52,2.52,0,0,1,2.52-2.53h0a2.53,2.53,0,0,1,2.53,2.53l0,63.9a9.61,9.61,0,0,0,9.43,9.61,9.76,9.76,0,0,0,9.8-9.8v-24.8h29a3.51,3.51,0,0,0,3.51-3.51Z" style="fill:#fc705a"></path><path d="M243.82,367.61c0,4.82-3.56,9.5-10,9.5H220V343.55h12.76c5.7,0,9.26,3.41,9.26,8.62,0,2.78-1,5.8-4.29,7.06C241.73,360.06,243.82,364,243.82,367.61Zm-11.15-19.48H225v9.25h7.74c2.78,0,4.24-1.94,4.24-4.67S235.54,348.13,232.67,348.13Zm.19,24.4c3.9,0,5.94-2.48,5.94-5.41a5.29,5.29,0,0,0-5.69-5.45H225v10.86Z" style="fill:#fc705a"></path><path d="M265.74,354.36h4.77v22.75h-4.77v-3.46c-1.32,2.78-5,4-7.36,4-5.74,0-9.2-3.84-9.15-10.32v-13H254v12.86c0,3.75,2.24,6,5.16,6s6.58-1.75,6.58-6.47Z" style="fill:#fc705a"></path><path d="M276,370.29h4.44c0,1.8,1.6,3.36,4.18,3.36s4.24-1.31,4.24-3c0-1.51-1.22-2.29-2.92-2.68l-3.07-.73c-4.24-1.12-6.18-3.31-6.18-6.67,0-3.7,3.36-6.77,8.08-6.77,3.9,0,8.08,2.05,8.08,6.82h-4.57c0-1.66-1.71-2.78-3.41-2.78a3.08,3.08,0,0,0-3.36,2.88c0,1.41,1.31,2.19,2.72,2.53l3.46.83c4.87,1.21,5.94,4.23,5.94,6.67,0,4.33-4.28,7-9,7C280.4,377.69,276.06,375.06,276,370.29Z" style="fill:#fc705a"></path><path d="M298.27,346.08a3.27,3.27,0,1,1,3.26,3.07A3.16,3.16,0,0,1,298.27,346.08Zm.88,31V354.36h4.77v22.75Z" style="fill:#fc705a"></path><path d="M332.36,364.1v13h-4.77V364.4c0-3.7-2.24-5.94-5.17-5.94s-6.57,1.7-6.57,6.42v12.23h-4.77V354.36h4.77v3.51c1.31-2.82,5-4.09,7.4-4.09C329,353.78,332.41,357.63,332.36,364.1Z" style="fill:#fc705a"></path><path d="M360.8,367.66H342.68c.64,3.7,3.37,5.6,7,5.6a7.43,7.43,0,0,0,6.43-3.31l3.8,1.9a11.52,11.52,0,0,1-10.43,5.84c-6.57,0-11.73-4.82-11.73-12a11.42,11.42,0,0,1,11.73-11.88c6.48,0,11.4,4.68,11.4,11.83C360.9,366.25,360.85,366.93,360.8,367.66Zm-4.67-3.85a6.21,6.21,0,0,0-6.58-5.6c-3.5,0-6.13,1.8-6.82,5.6Z" style="fill:#fc705a"></path><path d="M364.84,370.29h4.44c0,1.8,1.6,3.36,4.18,3.36s4.24-1.31,4.24-3c0-1.51-1.22-2.29-2.92-2.68l-3.07-.73c-4.24-1.12-6.18-3.31-6.18-6.67,0-3.7,3.36-6.77,8.08-6.77,3.9,0,8.09,2.05,8.09,6.82h-4.58c0-1.66-1.71-2.78-3.41-2.78a3.08,3.08,0,0,0-3.36,2.88c0,1.41,1.31,2.19,2.72,2.53l3.46.83c4.87,1.21,5.94,4.23,5.94,6.67,0,4.33-4.28,7-9,7C369.28,377.69,364.94,375.06,364.84,370.29Z" style="fill:#fc705a"></path><path d="M386.37,370.29h4.43c0,1.8,1.61,3.36,4.19,3.36s4.24-1.31,4.24-3c0-1.51-1.22-2.29-2.92-2.68l-3.07-.73c-4.24-1.12-6.19-3.31-6.19-6.67,0-3.7,3.36-6.77,8.09-6.77,3.89,0,8.08,2.05,8.08,6.82h-4.58c0-1.66-1.7-2.78-3.41-2.78a3.08,3.08,0,0,0-3.36,2.88c0,1.41,1.32,2.19,2.73,2.53l3.46.83c4.87,1.21,5.94,4.23,5.94,6.67,0,4.33-4.29,7-9,7C390.8,377.69,386.47,375.06,386.37,370.29Z" style="fill:#fc705a"></path></svg> 