<?xml version="1.0" encoding="UTF-8"?> <svg xmlns="http://www.w3.org/2000/svg" id="Calque_1" data-name="Calque 1" viewBox="0 0 686.15 975.69"><path d="M970.2,677.3C725.84,677.3,513.66,815,406.92,1017c53.36,129.6,180.87,220.86,329.72,220.86h0c196.85,0,356.44-159.58,356.44-356.44V689.19A640.27,640.27,0,0,0,970.2,677.3Z" transform="translate(-406.92 -262.15)" style="fill:#fc705a"></path><path d="M867,358.09q1.34-14.1,2.66-28.2l4.53.43-2.56,28.22Z" transform="translate(-406.92 -262.15)" style="fill:#4d4d4d"></path><path d="M889.76,467.89c1,3.68,2,7.35,2.9,11,1.18,4.69,2.31,9.39.71,12.77l-3.64,3.06Z" transform="translate(-406.92 -262.15)" style="fill:#4d4d4d"></path><path d="M879.24,373.56q-.62,10.13-1.24,20.24l-3.59-.11c-4-6.89,2.11-13.63,1.82-20.46Z" transform="translate(-406.92 -262.15)" style="fill:#4d4d4d"></path><path d="M770.65,1112.2v-36.8h1.65v36.8Z" transform="translate(-406.92 -262.15)" style="fill:#4d4d4d"></path><path d="M924.93,1079.2c-9.81.14-5.44-8.07-6.69-12.91a163.19,163.19,0,0,0-4.78-16.64c1.33,10.09-2.25,16-13.65,21l10.09,3.87c-.1.52-.21,1-.32,1.55H886.46c0-12.18-.74-24.12.45-35.85.36-3.44-1.59-12.38,7.85-10.77,2.36-14.1,12.26-10,19.54-6.74,11.33,5.11,16,16,17.31,27.83.27,2.45-3.44,5.11-4,7.94C926.33,1064.84,925.88,1071.38,924.93,1079.2Z" transform="translate(-406.92 -262.15)" style="fill:#4d4d4d"></path><path d="M870.74,980.43c1.68-.11,3.45-.62,5-.25,12.19,2.83,22.38,1.91,24.71-14.9l2.8,1.76c.44,4.12.88,8.24,1.42,13.33a32,32,0,0,1,5.66.59c7.82,2,15.46,5.09,23.39,6.16,10.63,1.43,21.48,1.2,32.21,2,2.69.21,5.26,1.85,7.88,2.83l-.54,2.43-14.24,2.17c-.24.94-.47,1.89-.7,2.83l14.12,5.27-13.6,2.27,0,3.28,15.6,5.2-.32,2.44c-6.07.57-12.13,1.37-18.21,1.58-1.7.06-5-1.89-4.93-2.41.49-2.6,1.87-5,3.23-8.19l-30.86-5.77.21-3h29.06l.13-2.81-32-6c.21,12.8-8.28,11.22-16,10.11-10.37-1.48-20.65-3.51-31-5.3l.54-3.33,37.32,2.57c.21-.6.42-1.19.62-1.79-3.24-1-6.52-1.93-9.73-3-10.46-3.63-23.33.09-31.59-10.31Z" transform="translate(-406.92 -262.15)" style="fill:#4d4d4d"></path><path d="M675.21,898.89c3.38-19.19,1.38-37.76-4.49-56-3.22-10-9.43-15.34-21.67-12.41l7.35-10.58c2.72.11,5.54,10.94,10.66,1.06.36,2.4.71,4.79,1.07,7.2a9.62,9.62,0,0,0,1.79,0c.4-2.47,1.85-6.44.83-7.23-12.27-9.58-8.62-23.48-9.66-36.58,6.43,18.28,8.85,39.25,30.95,44.35-1.47,8.64-2.77,16.26-4,23.5l-11-3.34c2.73,9.85,7.1,18.33,6.81,26.65C683.57,883.42,688.09,894.51,675.21,898.89Z" transform="translate(-406.92 -262.15)" style="fill:#4d4d4d"></path><path d="M946.3,926.27c.25,2,.51,4.07.76,6.1,2.17,7.21,8.82,7.14,14.39,8.75,3.23.94,6.56,1.55,10.59,2.48-1.55,1.86-1.87,2.64-2.35,2.75-3.62.86-7.27,1.59-10.91,2.36,3.23,2,6.47,4,9.67,6.09,1.29.83,2.47,1.83,3.85,2.85-.95.88-1.34,1.54-1.83,1.64-3.91.76-7.83,1.41-11.75,2.09,3.33,2.1,6.65,4.22,10,6.29,1.08.67,2.24,1.21,6,3.21H960.23l-1.56,3.4,11.77,6.66c-4.53,1-9.63,3.15-14.67,3-2.53-.07-5.79-3.78-7.21-6.6-2.06-4.09-2.76-8.88-3.72-12.21,1.07-6.3,2.06-12.18,3-18l-2.91-.51c-.39,2.12-.78,4.24-1.06,5.82-1.45-9.67-3-19.87-4.8-31.89Z" transform="translate(-406.92 -262.15)" style="fill:#4d4d4d"></path><path d="M897.06,1140.64v-51.85l53.35,6.48-.37,3.91-48.29-4.78v41.87c14.62,0,29,6.45,42.35-5.79v17.28Z" transform="translate(-406.92 -262.15)" style="fill:#4d4d4d"></path><path d="M962.87,586.33c2.44-11.22-6.65-8-10.8-9.23-1-16-2.05-31.63-3.22-49.62,9.69,9.17,9.37,0,12.37-6.26,1.6,4.76,2.45,7.25,3.52,10.42l5.44-3.73,2.07,1.68L961,545.43l12,4.06c-2.32,3.52-4.44,7.2-7,10.52-2.27,2.91-5.06,5.41-8.43,9l14.92,4.31-9.83,12.8Z" transform="translate(-406.92 -262.15)" style="fill:#4d4d4d"></path><path d="M664.09,872.22c0,6.39.43,12.82-.2,19.14-.27,2.68-2.77,5.14-4.26,7.7-2.92-2.19-8.27-4.27-8.37-6.59-.73-16.06-.52-32.18-.1-48.27,0-1.65,4.25-4.93,5.08-4.52,2.94,1.46,7.18,4,7.45,6.47.91,8.6.35,17.36.35,26.06Z" transform="translate(-406.92 -262.15)" style="fill:#4d4d4d"></path><path d="M968.46,1065.88c-2.68,0-5.43.35-8-.09a71.87,71.87,0,0,1-8.92-2.6l4.38-6.61-2.12-.58c.86-3.9,3.7-10,2.23-11.31-5.56-5.06-4-8,2-10.87l-8.4-6.42c8.63-6.6,15.8-.82,24.58-.16L960.49,1032l5.22,7.16c-8.06,3.41-7.18,7.61,1.95,11l-8.47,5.2,6.13,4.34c8.3,5.93,9.57,17.81,2.56,24.3-.46.42-1.43.93-1.76.73-4.85-2.94-9.62-6-14.42-9,1.31-1.94,2.24-5,4-5.59,3.91-1.3,8.23-1.36,12.38-1.92Z" transform="translate(-406.92 -262.15)" style="fill:#4d4d4d"></path><path d="M922,1008.6c.29,3.8.47,6.25.72,9.7l7.65-4.86c-.35,3.52-.58,5.86-.9,9.08l9.14-1.58-4.38,9h10.68l-6.84,7.52,11,2.51-9,4.48c-6.25-7.1-11-14.34-17.47-19.23-5-3.78-12.27-4.55-18.49-6.76-3.49-1.24-6.9-2.67-10.35-4,.41-1,.82-2.11,1.22-3.16l6.29,2.69c.51-2,1-3.85,1.73-6.69l5.15,5.39,4.32-6.16c1.16,2.84,2,5,3.27,8.06Z" transform="translate(-406.92 -262.15)" style="fill:#4d4d4d"></path><path d="M906.16,961.19c0-13.87-.11-26.46.14-39,0-1.44,2.07-2.83,3.17-4.24,1.46,1.15,4.24,2.38,4.18,3.44-.73,12.79-1.85,25.55-3,38.31C910.59,960.05,908.89,960.28,906.16,961.19Z" transform="translate(-406.92 -262.15)" style="fill:#4d4d4d"></path><path d="M904.39,581.29c-2.69-6.75-8.53-13.23-2.33-20.93,1.52-1.88,4.65-2.46,7-3.63.66,2.23,2,4.54,1.83,6.7-.55,6.15-1.75,12.25-2.69,18.37Z" transform="translate(-406.92 -262.15)" style="fill:#4d4d4d"></path><path d="M498.36,1064.79c4.89-5,6.77-14.1,18.24-10.51l-16.16,13.06Z" transform="translate(-406.92 -262.15)" style="fill:#4d4d4d"></path><path d="M903.63,469.66v36l-2.33,0v-36Z" transform="translate(-406.92 -262.15)" style="fill:#4d4d4d"></path><path d="M886,542.94l-.57,0c.46,2.7.27,5.79,1.58,8s4,3.27,6.15,4.85l-1.6,2.55-18.22-5.63Z" transform="translate(-406.92 -262.15)" style="fill:#4d4d4d"></path><path d="M953.77,1148.39l-1.46-29.13,2.6-.25v29.21Z" transform="translate(-406.92 -262.15)" style="fill:#4d4d4d"></path><path d="M822.59,1151.38l2.5-20.89,2.21.38v20.85Z" transform="translate(-406.92 -262.15)" style="fill:#4d4d4d"></path><path d="M811.82,1133.15c9.62,6.87,2.77,12.58,1.76,18.72l-2.68-.18Q811.37,1142.42,811.82,1133.15Z" transform="translate(-406.92 -262.15)" style="fill:#4d4d4d"></path><path d="M947,887.89s0-.36,0-.36L935.58,890l.74-11.93Z" transform="translate(-406.92 -262.15)" style="fill:#4d4d4d"></path><path d="M603.21,1139.82V1164l-1.85.1V1140Z" transform="translate(-406.92 -262.15)" style="fill:#4d4d4d"></path><path d="M627,1143.13v23.34l-1.58.07V1143.2Z" transform="translate(-406.92 -262.15)" style="fill:#4d4d4d"></path><path d="M903.85,837.57c0-14.18-.11-27,.18-39.75,0-1.29,2.5-3.5,3.83-3.5s3.86,2.29,3.81,3.5c-.47,12.17-1.28,24.33-2.31,36.46C909.29,835.17,906.83,835.85,903.85,837.57Z" transform="translate(-406.92 -262.15)" style="fill:#4d4d4d"></path><path d="M817.36,773.12l2.13-16c8.43,7.24,6.58,11.87,1.94,16.41Z" transform="translate(-406.92 -262.15)" style="fill:#4d4d4d"></path><path d="M871,980.22l-.42.09.19.12Z" transform="translate(-406.92 -262.15)" style="fill:#4d4d4d"></path><path d="M736.85,1223.77c.24,4,.46,8,.69,12H755.8V1096.68c-15.63,2-30.73-10.82-50.25-2.22l19.85,10.2-.25-2.45c7-.74,13.89-1.88,20.86-2.11,7.14-.24,11.19,6.39,6.68,11.71-5.27,6.21-11.51,13.17-18.76,15.72-8.1,2.85-17.9,2.09-26.79,1.22-38-3.71-75.92-7.65-113.78-12.29-27.41-3.35-54.63-8.18-82-11.88-15.73-2.13-31.59-3.23-47.38-5-3.49-.38-7-.85-10.19-1.31q3.22,4.2,6.56,8.3c16.45,1.59,32.92,3.16,49.27,5.53,6.41.94,12.31,5.37,18.72,6.28,27.41,3.86,54.91,7,82.38,10.39,21.39,2.64,42.77,5.38,64.18,7.82,5.58.63,11.31-.12,16.89.51,4.28.49,8.45,2,12.66,3.11-6.71,1.41-11,4.47-10.13,12.64.23,2.14-2.84,4.64-4.45,7-5.73-3.21-10.47-6.12-15.45-8.52a7.79,7.79,0,0,0-5.72-.12c-13.22,5.64-13.19,5.71-19-5.7-1.75,7.22-3.17,14.79-5.49,22.07-2,6.37-13.85,10.62-20.25,10.18-7.66-.54-15.92-.21-23.12,2.18-9.2,3-17.68,7.29-27.77-.26V1197c-.71,0-1.43.06-2.14.08a354.16,354.16,0,0,0,127.56,38.76h10.62c3.73-5.87,3.08-9.19-4.79-9.64-8.22-.47-16.39-1.7-26.64-2.82,10.26-10.69,19.91-4.79,29.08-3,8.74,1.74,9.71,8,8.43,15.44h18.26c.32-2.65.75-5.29,1-7.94.9-11.08-.05-11.79-11.23-11.54-3.91.09-7.86-1.35-11.57-3.14C723.58,1205.14,736.11,1211.15,736.85,1223.77Zm-31.72-83.54c0-.32,0-.68.09-.78,1.41-1,2.87-1.86,4.32-2.78,5.09,8.79,18.43-2,22,9.09.77,2.42-2.38,6.08-5.7,8.65.26-2.88.51-5.76.69-7.76Z" transform="translate(-406.92 -262.15)" style="fill:#4d4d4d"></path><path d="M947,887.69v-.16A1.48,1.48,0,0,0,947,887.69Z" transform="translate(-406.92 -262.15)" style="fill:#4d4d4d"></path><path d="M979.54,599.89c-8.32-2.08-18.58-1.17-17-13.29l-9.46,8.5c-24.6-4.4-50.49-8.64-76.17-13.92-5.93-1.22-11.14-6-17.16-9.39-.25.49-1.56,3.05-3.13,6.14l-12.76-3c3.15-7.45,5.87-13.87,8.89-21L858.2,558c1.75-1.86,2.61-3.52,3.87-3.93,1.69-.55,3.69-.14,5.8-.14v-7.78L886,542.94l-.57,0,22.53-8.48c-7.53-8.23-25.08-2.55-27.26-18.73l10.25-1.33L879,508.31l1-2.45,5.62,1,4-12.53.16.45,0-26.86-.21.42c-1.1-2.62-2.51-5.18-3-7.91-.11-.56,3.2-2.75,4.64-2.49,5.4,1,10.68,2.63,17.51,4.42-4-8.91-11.21-11-17.62-12.07l-6.34-10.71-2,1.25,1.17,8.14-13.14-9.59a10.71,10.71,0,0,0-1.75.95c-2.08,1.72-4.1,3.48-6.14,5.23-.94-1.32-2.91-3.51-2.65-3.83,1.68-2,4-3.44,5.83-5.35,7-7.27,13.84-14.66,21.32-22.61l-11.66-5c.2-.47.39-.94.58-1.4h11.17L866.72,401c.24-1,.47-1.94.71-2.9l16.71,2.19v-15.7l10.4,2.47-6.88-23.86-10,5c1-14.13,2-26.84,2.9-39.54,2.68,10.85-3.81,24,12.36,33.62-3.11-14-5.69-25.62-8.52-38.39l9.26,3.58,1.42-2.32-9.41-7.15c2.8-8.09,1-19.55,15-20-.44-2.44-.81-4.43-1.14-6.23-.09,6.43-8.77,3.53-11.28,6.88l-1.39-15.62-11.23,1.16c-.26-1-.78-2.82-.77-2.79-5.2,6.89-11.08,14.68-16.49,21.83-8.78-6.3-3.4-8.32,2.7-11.81a21,21,0,0,0,9-11.49c1.55-5.48.37-11.73.37-17.66l-10.73,2c.86.55,1.73,1.09,2.6,1.63-3.87,9.52-8.14,18.9-11.45,28.61-2,5.82-3.91,12.32-3.29,18.23,1.51,14.27,4.44,28.4,7,42.55,1.25,6.94,4.79,14,4,20.66-1.27,10.44-5.58,20.49-8.12,30.82-1.32,5.35-2.79,11.1-2.11,16.4,1.31,10.32-.46,18.63-9.67,24.53-7.23,4.62-8.44,11.3-6.47,19.25,5.71,23.1,5.76,45.9-3.14,68.45-1.61,4.09-1.56,9.54-.43,13.89,2.58,9.95-1.05,17.93-10.63,18.89-4.35.43-8.93-1.55-10.49-1.86-4.92,6.94-8.36,11.79-11.81,16.64l-3.14.34c1.18-8.22-2-8.91-6.48-5.86,1.15-10.26,2.22-19.89,3.4-30.42l-6.49,2c-.74-2.39-1.42-4.55-2-6.33l-10.38,7.18c1.34,2.54,3.42,6.45,5.57,10.49-6.8,5.27-6.3,5.16-4,16,1.73,8.08,2,16.48,2.74,24.76a9.68,9.68,0,0,1-1.41,4.81c-2.65,5.14-5.48,10.19-7.35,13.64,5.19,7.46,12.44,13.4,13.5,20.29,2.6,16.9,2.23,34.25,3.36,51.4.18,2.83,1.91,5.55,3.39,9.61-3.32,2.48-7.51,6.57,2.05,10.54-5.59,4.08-8.85,8.16-1.23,11.11C784,733,780.92,743,777.83,753.09c1.29,3.12,4,6.76,4.13,10.48.42,13.45-.42,26.94,0,40.39.14,4.59,2.66,9.1,4.44,14.75-5.34,5.46-5.34,5.63.39,9.08l-4.59,22.55-37.82,5.4-.66,5.4,13.13,7c-6.23,2.25-12.19,4-17.79,6.56a53.27,53.27,0,0,0-11.65,7.42c-2.74,2.28-4.11,6.7-7.08,8.16Q671,914.54,621.29,938c-2.83,1.33-6.88.14-10.36,0-2.89-.14-5.76-.52-10.62-1l5,2.71c-.29.63-.59,1.25-.89,1.88l-23.59-2.76,5.63-1.86-17-15.27c.59-1.33,1.19-2.66,1.79-4,16.1-1.4,32.19-2.9,48.31-4.12,4.66-.35,10.35,1.81,13.86-.19,7.73-4.41,15-3.56,22.79-1.76,2.57.6,5.3.46,8,.66.15-1,.29-2.09.44-3.14-7-1.38-14.08-2.8-21.13-4.13-6.42-1.22-11.13-3.91-10.58-11.53.3-4.26.34-8.54.78-12.78,1-9.35,2.12-18.67,3.23-28.28l-12.1-2.22v48.43c-9-1.13-11.45-6.05-10.92-14.09.58-9.1.23-18.27,0-27.4-.17-5.64.77-12.36-1.93-16.58-2.5-3.92-9.17-5.16-17-9.08,7.05-.38,13.09-2.55,15.87-.43,4.39,3.34,6.59,9.57,10,15.06l11.89-.76c.73-8.24,1.49-16.86,2.28-25.75,7.14.5,11.14-2,9.47-10.92-1.16-6.25-.45-12.82-.84-19.24-.27-4.37-1-8.73-1.54-13.09-.53-3.89-1.2-7.76-1.81-11.64l4-.42c2,15.65,4,31.3,6,47.06,11.65-2.05,6-11,5.45-16.59-2.37-22.37-6-44.48-32.64-51.71,5.31-6.83,5-16.59-1.71-21.28.88,12.53,2.38,25.19-14.33,26.94,3.65,4.73,11.57-6.18,11.9,5.13l3.09-4.94,2.4,1.37q-2,29.24-4.07,58.46l-2.13,0c0-9.48-.12-19,0-28.45.15-8.95.59-17.89.88-26.79-1.78,3.58-3.63,7.08-5.22,10.7s-2.89,7.26-4.32,10.9l-2.6-1L612.5,755l-1.14-.44-10,12.84-1.2-.79,2.88-7.87c-5,1.55-9,2.22-12.49,3.93-16,7.89-22.6,23.13-29.33,38.33-6.1,13.76-8.86,29.46-21.95,39.34-.76.57-1.7,1.74-1.59,2.49,1.19,8,2.9,16,3.83,24.12,1.14,10,2.79,20.12,2.24,30.07-1.24,22.61-1.77,22.91-24.09,20.12-8.77-1.09-14,1-18.85,9-10.48,17.13-22.53,33.29-33.66,50-2.12,3.18-3,7.21-4.4,10.85l3.44,1.5c1.58-3,3.15-5.94,5.63-10.62l5.92,11.63,9.57-8.95c-1,4.8-1.47,7.16-1.57,7.64,8,.37,15.18.56,22.31,1.07,7.37.52,14.71,1.34,20.45,1.88-.69-4.77-1-9.27-2.09-13.56-.67-2.63-2.1-6.3-4.09-7-2.64-1-6.47-.18-9.2,1.11-1.61.76-2.09,3.94-3.08,6l-2.36-3.62c9.39-18.79,20.66-12.17,30-1.25,1.18,4.51,3.8,8.72,2.68,11.28-3.87,8.82,1.44,8.93,7.39,9.57,10.57,1.12,21.08,2.79,31.66,3.72s21.51,1.26,33,1.88c0,.38.21,2.2.6,2.24,14.58,1.33,29.21,2.17,43.78,3.62,4.23.43,8.31,2.49,13.27,4.07a9.86,9.86,0,0,1,.75-3.35c4.73-11,8.94-22.4,14.67-32.92,3.38-6.21,10.39-7.51,15.28-1.62,3.87,4.65,6.27,10.84,8.22,16.71,2.56,7.73-1.62,11-7.21,11.24-2.27-4.65-3.18-9.1-5.9-11.19-2-1.59-8.9-1.1-9.34.07-2.54,6.81-3.82,14.1-5.53,21.23-2.88,6.37,4,8.69,6.29,12.47-1.3.42-2.22,1-3.05.93-20.38-2.74-40.72-5.77-61.12-8.32-48.9-6.11-97.84-12-146.74-18.13-2.36-.3-4.47-2.66-8.37-5.11l-59.52,29.29A355.61,355.61,0,0,0,445.47,1087c2.1-14.4,4.37-27.76,4.74-41.15.31-11.26,2-19.45,13.75-22.42l5.37,6.22c1-4.77,1.62-7.85,2-9.73l16.67-4.06,7.08,17.87,5.28-17.49,2.7.07,6,18,7.16-11.25,6.18,7.61c.3-5.41.65-11.56,1-17.72l2.48-.29q4.89,11.82,9.76,23.63l2-.31v-17.34l3.32-1.16,10.94,22.19c1-5.07,1.56-8.22,1.88-9.94l18.89-6.19c.83,6.6,1.55,12.26,2.26,17.92l3.09,0a102.54,102.54,0,0,1,1.89-10.21c.58-2,2-3.8,3.11-5.68,1.6,1.79,3.92,3.33,4.65,5.42,1.37,3.93,1.82,8.18,2.66,12.3l2.69.32c-.29-7.4,1.44-12.93,12-11l-10.24-9.3c10.42,1.9,18.15,3.61,26,4.66,12.36,1.66,5.46,14.33,12.19,21.06.63-4.45,1.07-7.51,1.49-10.5l11-2.41-9.66-5.92c3.34-1.59,7.62-1.64,8.19-.2,2.61,6.54,4.17,13.5,6.43,21.44l9.48-3.27c.62.88,1.94,2.78,3.26,4.68l2.2-.48q1-9.75,2-19.48l.77,0c.71,6.51,1.42,13,2.29,21,7.68-7.75-2.63-20.78,11.6-23.91.88,8.67,1.7,16.75,2.7,26.62,5.25-3.93,9-6.48,12.42-9.34s6.74-6.11,10.1-9.17l2.8,1.69,1.37,17.28,11.23-5.11-7.43,8.12c5.63-1.34,9.3-3.5,12-2.65,15.2,4.68,29.7,12.43,46.45,9.28.74-.14,1.47-.33,3.06-.68l-7.18-1.39c9-7.35,28.15-6.4,34.86,1.65,1.4,1.68.11,5.43.49,8.17s.45,6.78,2.2,8c2.84,1.92,7,2.67,10.49,2.54,1.93-.07,3.76-3,5.64-4.57-.08,1.11-.16,2.21-.25,3.32l25.18,6.82c1.66-5.93,2.62-9.38,3.7-13.26,9.55,2,14.7-2.72,15.06-11.35.18-4.07-3.17-8.29-4.93-12.44l-4.34-.65,7.33-3.09c-4.22-2.85-7.35-3.78-10.48-3.75s-6.16,1-9.24,1.59l-.86-2.54,17-6.89-1-3.23H845.79l-.13-1.82,15.55-6.51-1.32-4-20.34,2.23c-.12-.58-.23-1.17-.35-1.75l21.65-8.13-1.11-4.1-19.34,2.62-.48-3.24c10.79-5.55,23-4.8,35-4.92.11-.82.21-1.64.32-2.46l-17-5.55c.25-2.77.5-5.59.81-9.1H845.2l-.42-2.45,25.77-5.52L858.89,973c0-5.63.81-11.28-.16-16.61-2.44-13.36-11.68.43-16.61-3.71-2-15.6-1.91-15.92,5.54-15.37-1.69,3.3-3.39,6.59-5.5,10.67,11.06.17,20.2.61,15.2-13.43a15.11,15.11,0,0,1,.21-9.35c.8-2.31,3.29-4.42,5.56-5.71,1.53-.87,4-.17,7.89-.17l-14.55-7.2c.29-1.15.59-2.3.88-3.45l15.12-1.21c.29-.89.57-1.78.86-2.68l-16.75-7.71,1-3.71,37.95,7.69c-.32-2.77-1.17-3.35-2.1-3.55-10.53-2.23-21.14-4.14-31.56-6.81-2.12-.54-3.53-3.87-5.27-5.92,2.44-1,4.89-2.95,7.32-2.91s5.08,1.93,7.62,3l1.23-2.3c-2.12-1.2-4.27-2.35-6.36-3.6-3.61-2.16-7.17-4.38-10.76-6.57,4.5-.64,9-1.3,13.5-1.87a8.78,8.78,0,0,1,2.25.28c.16-.45.31-.9.47-1.36l-16.3-6.81.33-3.35c4.29-.61,9.23-2.9,12.75-1.53,13,5,25.6,11.29,36.79,16.38.79,5.43.64,9.1,2.1,11.94.5,1,5-.14,5.11-.15,2.51-7.3,4.28-12.45,6.31-18.37,10.8,6.38,30.11-1.78,28,20.33,0,0,0-.1,0-.2-1.09,15.84-1.13,15.78-17.08,13.64-7.29-1-14.63-1.61-21.94-2.4l-.48,3.44,33.23,7c2.12,6.4,3.85,11.64,5.58,16.88.25,2,.51,4.07.76,6.1l23.46,2.31c.09-.93.17-1.85.25-2.78L957.24,926c.29-1,.59-1.93.89-2.89,2.21-.31,4.56-.25,6.59-1,2.44-.92,4.61-2.55,6.89-3.88-2.34-1.32-4.6-2.82-7-3.92s-5.13-1.86-7.7-2.77c.19-.82.37-1.64.56-2.46l11-1.64L958,899.85l13-4.93c-4.51-1.72-8.73-2.52-12-4.77-3.82-2.66-.35-5.3,11.52-7l-13.72-6.42c3-7.36,15.79.77,13.79-10.64l-14.94-3.43c.18-1.14.35-2.27.53-3.41H970l-13.35-8.48,11.09-4.66-11-8,11.07-4.06-11.31-7.86L968.11,822l-13-8.32,1.81-3h11.13c.08-.5.16-1,.25-1.48l-13.83-6.81c4.83-5.68,15.68,1.32,14.53-10.13l-14.25-3c0-1,0-2,0-3l12.37-1.33L954,777.78l1.39-3.09h11.47c.19-.56.37-1.12.55-1.67l-13.08-7.73c.53-1.07,1-2.14,1.57-3.21h13.67l-15.65-8.33,1.18-2.8,10.75-1.24c2.13-4.93,3.92-9.1,6.31-14.65l-19.92-1.37c1-6.29,1.79-11.49,2.64-16.88l10.81-.58L953,707.08c.57-1,1.13-2,1.69-3h10.37L953,694.61c.65-.75,1.29-1.5,1.93-2.26l11.54.59-13.62-9.8c.59-.89,1.19-1.77,1.79-2.66H966.3l-14.21-9.3,1.62-2.94h9.9c-13.25-3.52-10.24-13.82-10.38-23.58H961l-11.36-18.91,11.59-.65ZM876.23,373.23l3,.33q-.62,10.13-1.24,20.24l-3.59-.11C870.42,386.8,876.52,380.06,876.23,373.23Zm-6.59-43.34,4.53.43q-1.29,14.1-2.56,28.22l-4.63-.45Q868.32,344,869.64,329.89ZM632,811.14l-3.08-60.95C637.49,771.76,634.54,791.46,632,811.14ZM520.22,947c-6.11-4.83-9.83-4.37-13.09,4l4-17.53,10.72,5.92C521.15,942.58,520.56,945.4,520.22,947Zm164.61-32.67c6-2.42,9.42-4.3,13.07-5.12,3.27-.73,6.8-.28,10.22-.36-1.55,4-2.37,8.5-4.9,11.68-1.85,2.34-5.86,3.18-9.07,4.16-2.68.82-7.21,2.12-8.06,1-1.69-2.2-1.63-5.9-1.83-9C684.16,915.16,685.07,913.53,684.83,914.36Zm-23.52,8.23c-5.07,21.53-7.9,24.7-25.15,25C645.51,938.32,652.94,930.92,661.31,922.59ZM597,859.76c.55,5,.16,10,.16,15.09h-.73c0,6,.32,12.11-.19,18.1-.15,1.76-2.64,3.32-4.06,5-1.57-1.44-4.4-2.78-4.51-4.32-.86-11.52-1.59-23.09-1.31-34.61.06-2.27,4.71-4.42,7.25-6.62C594.77,854.83,596.7,857.21,597,859.76Zm24.39-40.56c1.84,1.34,1.37,5.84,1.62,7.12-4-1.65-6.64-2.33-8.8-3.8-1.84-1.24-3.07-3.38-4.36-4.89-8.53,2.22-16,6.81-24.62,5.15,1.22-1,2.48-1.93,3.73-2.88C605,807.54,605.12,807.37,621.37,819.2Zm-36.56,3.93c1,2.62,2,5.25,3.15,8.14-5.6.7-11.16,1.44-4.35,8.4L574,845.19C572,835.09,579.34,829.57,584.81,823.13ZM573.68,845.8l9.8,3.82,0,3.9-14,3.16-2.36-3.34Zm-17.76,19.44,3.7-.06-2,44.29-1.69-.05ZM544.25,972.08l-8.7-20.57C545.26,952.66,546.79,956.13,544.25,972.08Zm2.81-103.74-2.67-.23q1-13.32,2.08-26.63l2.93.29Zm12.46,118.72,3.72-12.47-13.73-8C563,963,572.26,950,587.17,957.12c1.21,9.06-18.9,3.8-12.69,16.54l8.28-2.9,1.68,4.13Zm45-4.49c-7.34,3.33-14.72,6.56-23.14,7.72l43.21-20.36c.46.92.91,1.84,1.36,2.75C618.78,976,611.66,979.32,604.49,982.57Zm11.58-21.86c-2.29-11.75,4.16-13.42,13.08-12.28ZM662.81,993l-11.5-12.92c6.83-4.75,11.94-9.73,17.44.67C656.48,980.91,664,987.6,662.81,993ZM647.1,972.86l-1.51-3.28,23.14-10c.38.77.76,1.54,1.13,2.32ZM633.89,970l-1.64-3.51,70.84-33,1.9,4Zm64.88,63.88c0-7.6-.37-14.6.23-21.51.17-1.89,3-4.22,5.08-4.94.95-.33,3.88,2.47,4.55,4.34C713.13,1024.54,713.89,1032,698.77,1033.91Zm-6.1-79.49c3-11.71,15.36-12.29,22.66-18.89l1.62,2Zm112.94,34.33c-1.05-8.11-1.05-8.11,10.16-17.77C816.63,986.38,816.63,986.38,805.61,988.75Zm.82-139.11V822.51l3.35-.16q.57,9.58,1.15,19.17l1.2.27c1-9.77,2-19.54,3.26-32.2C820.67,837.52,819.43,847.54,806.43,849.64Zm22.21,161.14c-4.94-5.45-9.88,8-17,8.08-.44-1.05-.87-2.09-1.3-3.14L839.38,1003c.09.54.19,1.09.28,1.63ZM832.24,871l3.8.42a45.4,45.4,0,0,1,.83,6.4c0,2.63-1.78,6.4-.61,7.69,9.37,10.32,1.11,12.35-6.5,15-2.12.74-4.08,2-7.82,3.83Zm-.65-33.25V810.24l3.08-.18v27.71Zm23.46,121.65-14.13,10.13c.37.82.73,1.64,1.09,2.46l7.11.36c-.11.51-.07,1.4-.38,1.55-12,5.77-15.8,3.38-15.7-9.68.12-13.61,0-27.22,0-40.83h3.26c.66,13,1.32,26,2,39.71ZM800.16,792.72c-.51-4.5-.85-7.43-1-8.55,3.56-2.36,7.33-3.51,8-5.66.82-2.53-1-5.92-1.71-8.94l-5.39,2.08c-.56-8.34,13.95-18.32,40.31-26.88-2.94,8.71-11.91,16.64.61,26.17ZM846.5,521.8l4.38,6.58,1.57-.4c-1.8-9.06-3.61-18.12-5.6-28.1,9,9,17.61,17.49,12.82,32.38-1.74,5.4-.28,11.83-.28,18.94l-13.16-1.86,3.08-4.28-5.7-22.18Zm59.37,77.13c-.27.57-.55,1.13-.82,1.7l28.45,6.44s-1.73,3.13-2.87,2.93c-25.23-4.29-50.4-9-75.35-15.1,14.61-1.89,28.85,9.69,43.33,0,0,2-.12,4-.21,6Zm12.56-4.51h-19.8a.41.41,0,0,0,0,.11c-9.94-2.8-19.23-8.68-30.56-2.82-3.6,1.86-9.78-1.27-16.56-2.41C876.78,576.3,897,591,918.43,594.42ZM856.8,658.63a6.81,6.81,0,0,1-3.34-4.36c-.24-1,1.29-3.13,2.52-3.69,5.39-2.5,12.36,3.41,12.2,11C863.78,660.53,860.12,660,856.8,658.63Zm11.3,16.77-14.46-8.93c1.58-1.26,3.2-3.63,4.75-3.58C863.72,663,869.39,663.62,868.1,675.4Zm76.76,183.28c-3,9.17-11,5.31-16.43,4-8-1.92-15.47-5.94-24.49-9.6-.24-1.93-.77-6.23-1.29-10.52l-3.35-1.12-8.67,13.27,1.17,3.4-37.65-9.23,5.4-6.64c-.92-2.65-2-5.71-3-8.78l13.84-1.66c-2.84-1.09-5.39-1.59-7.35-2.95-2.6-1.8-4.74-4.27-7.08-6.46,2.93-.69,5.84-1.54,8.81-2,1.24-.19,2.59.42,4.7-1a68.44,68.44,0,0,1-6.61-3.22c-2.58-1.58-5-3.5-7.41-5.27,3-1.13,6-2.28,9-3.35a21.08,21.08,0,0,1,2.84-.55l-11.77-8.82,8.07-5.11-9.18-5.89c.22-1,.44-1.93.67-2.89l17.43-1.83-18.73-9.58c.19-1,.37-2,.56-2.94l10.83-1.37c-17.91-.85-6.09-14.78-11.37-22.59H867.1c.12-.52.23-1,.34-1.55-2.34-.7-4.93-1-7-2.21-2.31-1.42-4.1-3.68-6.12-5.57,3.22-.95,6.72-3.21,9.58-2.58,6.36,1.42,12.23,5.13,18.6,6.4,16.19,3.24,32.59,5.41,48.8,8.57,4.24.83,11,3.16,11.53,5.77,1.42,7.41.39,15.34-.38,23-.07.68-5.37,1.44-8.13,1.13-20-2.27-39.9-4.81-60.15-5.39,16.07,3,32.17,5.86,48.19,9.1,19,3.84,23.18,9.94,21.29,30.82-1.84-5.8-3.41-10.74-5-15.67l-1.41.74c1.29,14.41,2.57,28.81,4,44.32C949.3,844.62,947,852.17,944.86,858.68Zm-16.15-124.4-.23,1.8,12.19,4.09-.64,3.37c-6.38-1.3-12.84-2.34-19.06-4.17-.94-.28-.8-4.26-1.43-8.24L877,725.4l-.51,2.46,38.32,7.36-.22,2.71c-2,.16-4,.81-5.86.41-16.32-3.48-32.62-7.05-48.88-10.81-9.23-2.13-5.44-10.55-6.42-16-1.2-6.65-.28-13.92,1-20.67.45-2.33,4.77-3.92,7.63-6.08.2.59.19-.13-.18-.44-2.69-2.3-5.45-4.51-8.18-6.75,1.86-1,4.52-3.28,5.44-2.72,3.79,2.34,9.11,5,10.1,8.53,2,7.23,2.17,15.15,2,22.76-.28,10.37,5.3,12.79,16.62,11.79,1.37-8.83,4.13-18.44,4.06-28-.1-13.83,3.34-28.11-3.62-41.57-1.09-2.11,1-6.17,2.34-9,.26-.53,5.55.12,6.07,1.31,1,2.36.57,5.48.37,8.26-.51,7.06-1.91,14.12-1.7,21.14.42,13.76.55,27.7,2.95,41.18,2.17,12.22,3.43,12,19.52,11.39.89-12.63,2.51-25.49,2.49-38.33s-1.68-25.84-2.73-40.34l9.57,1.71c-8,20.28-1.94,40.32-2.75,60.16a26,26,0,0,0,.29,5.06c1.64,9.81,4.39,18.43,17.24,17.26,1.9-.18,4,1.47,5.8,4.31Zm19.08-100.82-9.51,1c-.75-2-1.62-4.38-2.51-6.79l-10.9,5.87c1.66,5.15.71,9.6-8.38,5.26,2.77-7.31,2.61-6.8-4-8.91-2.21-.71-3.36-4.71-4.73-6.8l-11.38,5.59c.06.31.51,2.74,1.24,6.72l-8.06-1.14c-2.92-3.77,10.81-14.54-5.42-9.45-.69.22-2.86-4.3-4.59-7-3.2,1.43-3.92,11.58-9.85,1.92q-1.22,7.83-1.74,11.2c1.08,6.39,1.93,11.38,2.8,16.54-16.14.95-16.15.94-17.06-19.28L864,626.76c.11-1,.21-2,.31-3.08-7.68-2.17-14.62-4.74-8.23-15.13,8,2.06,16.17,4.61,24.54,6.25,18.2,3.57,36.55,6.41,54.71,10.13,4.71,1,9,4.07,13.47,6.2C948.44,631.91,948.12,632.69,947.79,633.46Z" transform="translate(-406.92 -262.15)" style="fill:#4d4d4d"></path><path d="M849.31,545.06Z" transform="translate(-406.92 -262.15)" style="fill:#4d4d4d"></path><path d="M962.62,586.08c0,.19,0,.34,0,.52l.3-.27Z" transform="translate(-406.92 -262.15)" style="fill:#4d4d4d"></path><path d="M670,1009.24h0S670,1009.28,670,1009.24Z" transform="translate(-406.92 -262.15)" style="fill:#4d4d4d"></path><path d="M898.73,287.41c.24,1.36.5,2.73.77,4.24A12.88,12.88,0,0,0,898.73,287.41Z" transform="translate(-406.92 -262.15)" style="fill:#4d4d4d"></path><path d="M966.47,1101.06c6.5.9,13,2.24,19.52,2.58,6.72.36,10.63,2.7,11.25,9.93.2,2.37,1.71,5.57,3.61,6.69l.23.13q8.05-8.9,15.5-18.34c-1.28-3.52-2.66-7.34-4.23-11.68,0,13-6.46,11.78-13.06,10.86-10.79-1.49-21.62-2.71-32.44-4C966.73,1098.48,966.6,1099.77,966.47,1101.06Z" transform="translate(-406.92 -262.15)" style="fill:#4d4d4d"></path><path d="M946.39,1148.18c-.36,10.27.77,19-10.87,14.45-4.2,10-12.4,13.16-22.21,14.51-11.2,1.54-14.11-.73-13.21-12H889.64c-3.79-6.19-5.87-11.73-9.76-15.3-3.39-3.1-8.81-4-14.46-6.31-1.44,1.33-5.28,3.18-6.14,6-2.53,8.12-8,7-12.51,3.86-4-2.75-6.53-7.67-9.7-11.63l-2.35.58,1.45,13.09c-2.93,1.66-7.23,6.21-10.79,5.68-7.78-1.14-15.19-4.85-21.11-6.93-6.22-6.33,4.62-14-2.74-21.08-2.61,13.31-13.42,11.46-21.34,12.37-11.46,1.33-10.6-12.32-18-17.06,0,10.28-.16,20.37,0,30.45.49,25.68,1.14,51.35,1.72,77h10.84a354.83,354.83,0,0,0,181.52-73.66Z" transform="translate(-406.92 -262.15)" style="fill:#4d4d4d"></path><path d="M975.28,1131.71c-.59-1.29-1.86-2.27-4.59-5.47,0,9.5-.65,16.93,0,24,2.93-2.55,5.8-5.16,8.64-7.8C978,1140.24,976.72,1134.87,975.28,1131.71Z" transform="translate(-406.92 -262.15)" style="fill:#4d4d4d"></path></svg> 