<?xml version="1.0" encoding="UTF-8"?> <svg xmlns="http://www.w3.org/2000/svg" id="Calque_1" data-name="Calque 1" viewBox="0 0 1142 404"><circle cx="205.16" cy="202" r="147.27" style="fill:#e6e6e6;opacity:0.4"></circle><circle cx="205.16" cy="202" r="130.77" style="fill:#fc705a"></circle><path d="M298.56,206.16A4.16,4.16,0,0,0,294.4,202H251.7v37.78a3,3,0,0,1-3,3h0a3,3,0,0,1-3-3l0-75.71a11.39,11.39,0,1,0-22.78,0l-.07,106.11a3.1,3.1,0,0,1-6.19,0l.06-136.36a11.53,11.53,0,0,0-23.05,0l-.14,136.36a3.1,3.1,0,0,1-3.3,3.09,3.18,3.18,0,0,1-2.89-3.2V164.3a11.58,11.58,0,0,0-11.61-11.62,11.4,11.4,0,0,0-11.17,11.39l.05,75.71a3,3,0,0,1-3,3h0a3,3,0,0,1-3-3V202H115.93a4.16,4.16,0,0,0-4.16,4.16h0a4.16,4.16,0,0,0,4.16,4.16h34.23V239.7a11.58,11.58,0,0,0,11.62,11.62A11.4,11.4,0,0,0,173,239.93l-.06-75.71a3,3,0,0,1,3-3h0a3,3,0,0,1,3,3V270a11.71,11.71,0,0,0,11.75,11.75,11.52,11.52,0,0,0,11.3-11.52l.14-136.36a3.1,3.1,0,0,1,6.19,0l-.06,136.36a11.53,11.53,0,0,0,23.05,0v-106a3,3,0,0,1,3-3h0a3,3,0,0,1,3,3l0,75.71a11.4,11.4,0,0,0,11.17,11.39,11.58,11.58,0,0,0,11.61-11.62V210.32H294.4a4.16,4.16,0,0,0,4.16-4.16Z" style="fill:#fff"></path><path d="M429.89,177.16h-9.46V132.73h14.79a21.5,21.5,0,0,1,6.61,1,14.61,14.61,0,0,1,5.11,2.76,12.92,12.92,0,0,1,3.33,4.44,14.52,14.52,0,0,1,1.2,6.07,12.56,12.56,0,0,1-2.57,8,14.94,14.94,0,0,1-6.57,4.79l12.25,17.39H443.35l-10.92-16.25h-2.54Zm0-24.12h5.4a7.15,7.15,0,0,0,4.73-1.56,5.34,5.34,0,0,0,1.87-4.34,5.24,5.24,0,0,0-1.87-4.35,7.33,7.33,0,0,0-4.73-1.49h-5.4Z" style="fill:#b3b3b3"></path><path d="M486.89,169.67a14.78,14.78,0,0,1-5.68,6.1,16.9,16.9,0,0,1-8.85,2.22,18.2,18.2,0,0,1-6.73-1.21,15.19,15.19,0,0,1-5.24-3.39,15.73,15.73,0,0,1-3.43-5.24,17.63,17.63,0,0,1-1.23-6.67,17.23,17.23,0,0,1,1.23-6.57,16.1,16.1,0,0,1,3.43-5.23,15.48,15.48,0,0,1,5.14-3.46,17.53,17.53,0,0,1,13,0,14.44,14.44,0,0,1,5,3.46,15.68,15.68,0,0,1,3.27,5.3,18.85,18.85,0,0,1,1.17,6.76c0,.55,0,1,0,1.39a7.07,7.07,0,0,1-.09.89H464.8a6.34,6.34,0,0,0,.77,2.54,6.82,6.82,0,0,0,1.68,2,8.06,8.06,0,0,0,5.11,1.81,7.3,7.3,0,0,0,4.12-1,8.57,8.57,0,0,0,2.61-2.79Zm-8-11.68a6.35,6.35,0,0,0-2.23-4.16,7.06,7.06,0,0,0-4.76-1.62,7,7,0,0,0-2.6.48,7.52,7.52,0,0,0-3.71,3.14,5.33,5.33,0,0,0-.73,2.16Z" style="fill:#b3b3b3"></path><path d="M504.48,152.41a3.48,3.48,0,0,0-2.1.6,1.84,1.84,0,0,0-.82,1.55c0,1.15.86,1.95,2.6,2.42l3.94,1a14.2,14.2,0,0,1,6.76,3.52,8,8,0,0,1,2.31,5.75,9.73,9.73,0,0,1-.95,4.32,10.21,10.21,0,0,1-2.63,3.39,12.13,12.13,0,0,1-4,2.22,15.5,15.5,0,0,1-5,.8,16,16,0,0,1-8.19-2,12,12,0,0,1-5.08-5.65l7.49-4.13a7.63,7.63,0,0,0,2.48,3.11,5.68,5.68,0,0,0,3.37,1.14,4.15,4.15,0,0,0,2.38-.63,2,2,0,0,0,.92-1.78c0-1.1-1-1.88-2.86-2.35l-3.68-.89q-9-2.09-8.95-9.65a9.4,9.4,0,0,1,3.36-7.3,12,12,0,0,1,3.84-2.09,15.2,15.2,0,0,1,4.92-.76,14.36,14.36,0,0,1,3.94.54A15.76,15.76,0,0,1,512,147a12.88,12.88,0,0,1,2.92,2.28,10.76,10.76,0,0,1,2,3l-7.55,4a6.38,6.38,0,0,0-2.1-2.83A4.69,4.69,0,0,0,504.48,152.41Z" style="fill:#b3b3b3"></path><path d="M521.3,161.48a16.2,16.2,0,0,1,4.89-11.74,16.59,16.59,0,0,1,5.39-3.49,18.47,18.47,0,0,1,13.46,0,16.59,16.59,0,0,1,5.39,3.49,16.45,16.45,0,0,1,0,23.49,16.76,16.76,0,0,1-5.39,3.49,18.47,18.47,0,0,1-13.46,0,16.76,16.76,0,0,1-5.39-3.49,16.2,16.2,0,0,1-4.89-11.75Zm9.14,0a8,8,0,0,0,.63,3.18,8.61,8.61,0,0,0,1.69,2.54,7.7,7.7,0,0,0,2.47,1.71,7.54,7.54,0,0,0,3.08.63,7.8,7.8,0,0,0,5.55-2.34,8.61,8.61,0,0,0,1.69-2.54,8.32,8.32,0,0,0,0-6.35,8.61,8.61,0,0,0-1.69-2.54,7.61,7.61,0,0,0-2.5-1.71,7.49,7.49,0,0,0-3.05-.64,7.39,7.39,0,0,0-3.08.64,7.7,7.7,0,0,0-2.47,1.71,8.61,8.61,0,0,0-1.69,2.54A7.9,7.9,0,0,0,530.44,161.48Z" style="fill:#b3b3b3"></path><path d="M570.87,177.16h-9.26V145.8h9.26v4a10.36,10.36,0,0,1,3.78-3.55,11.25,11.25,0,0,1,5.49-1.27,10.81,10.81,0,0,1,8.48,3.43q3.07,3.42,3.08,9.39v19.36h-9.27V160a7.11,7.11,0,0,0-1.46-4.79,5.27,5.27,0,0,0-4.19-1.69,5.39,5.39,0,0,0-4.29,1.88,7.64,7.64,0,0,0-1.62,5.17Z" style="fill:#b3b3b3"></path><path d="M631.75,145.8v31.36h-9.08V173a10.64,10.64,0,0,1-4.34,3.68,14.06,14.06,0,0,1-11.68,0,14.74,14.74,0,0,1-4.7-3.46,16.06,16.06,0,0,1-3.14-5.2,18,18,0,0,1-1.15-6.51,17.79,17.79,0,0,1,1.15-6.47A16.55,16.55,0,0,1,602,149.8a14.68,14.68,0,0,1,4.7-3.49,13.66,13.66,0,0,1,5.87-1.27,14,14,0,0,1,5.81,1.21,10.21,10.21,0,0,1,4.34,3.62V145.8Zm-24.88,15.68a8,8,0,0,0,.63,3.18,8.52,8.52,0,0,0,1.72,2.57,8,8,0,0,0,11.42,0,8.71,8.71,0,0,0,1.72-2.57,8.32,8.32,0,0,0,0-6.35,8.71,8.71,0,0,0-1.72-2.57,8,8,0,0,0-11.42,0,8.52,8.52,0,0,0-1.72,2.57A7.9,7.9,0,0,0,606.87,161.48Z" style="fill:#b3b3b3"></path><path d="M649.21,177.16h-9.27V145.8h9.27v4a10.26,10.26,0,0,1,3.77-3.55,11.26,11.26,0,0,1,5.5-1.27,10.79,10.79,0,0,1,8.47,3.43q3.07,3.42,3.08,9.39v19.36h-9.27V160a7.11,7.11,0,0,0-1.46-4.79,5.25,5.25,0,0,0-4.19-1.69,5.37,5.37,0,0,0-4.28,1.88,7.64,7.64,0,0,0-1.62,5.17Z" style="fill:#b3b3b3"></path><path d="M676,161.48a17.23,17.23,0,0,1,1.23-6.57,15.86,15.86,0,0,1,3.46-5.23,15.46,15.46,0,0,1,5.3-3.46,17.87,17.87,0,0,1,6.76-1.24,18.63,18.63,0,0,1,4.1.47,13.16,13.16,0,0,1,3.77,1.5v8.69a11.59,11.59,0,0,0-6.79-2.28,9.29,9.29,0,0,0-3.39.6,8.11,8.11,0,0,0-2.7,1.68,7.6,7.6,0,0,0-1.78,2.57,8.8,8.8,0,0,0,0,6.54,7.5,7.5,0,0,0,1.78,2.57,8.11,8.11,0,0,0,2.7,1.68,9.09,9.09,0,0,0,3.39.61,10.09,10.09,0,0,0,3.62-.67,13.09,13.09,0,0,0,3.24-1.74V176a14.75,14.75,0,0,1-4,1.55,18.47,18.47,0,0,1-10.76-.73,15.74,15.74,0,0,1-5.27-3.36,15.18,15.18,0,0,1-3.46-5.21A17.8,17.8,0,0,1,676,161.48Z" style="fill:#b3b3b3"></path><path d="M736.49,169.67a14.85,14.85,0,0,1-5.68,6.1A17,17,0,0,1,722,178a18.27,18.27,0,0,1-6.73-1.21,15.15,15.15,0,0,1-5.23-3.39,15.58,15.58,0,0,1-3.43-5.24,17.45,17.45,0,0,1-1.24-6.67,17,17,0,0,1,1.24-6.57,15.94,15.94,0,0,1,3.43-5.23,15.38,15.38,0,0,1,5.14-3.46,16.39,16.39,0,0,1,6.44-1.24,16.6,16.6,0,0,1,6.51,1.24,14.31,14.31,0,0,1,5,3.46,15.68,15.68,0,0,1,3.27,5.3,18.64,18.64,0,0,1,1.18,6.76c0,.55,0,1,0,1.39s-.06.68-.1.89h-23a6.33,6.33,0,0,0,.76,2.54,6.82,6.82,0,0,0,1.68,2,8.06,8.06,0,0,0,5.11,1.81,7.34,7.34,0,0,0,4.13-1,8.65,8.65,0,0,0,2.6-2.79Zm-8-11.68a6.29,6.29,0,0,0-2.22-4.16,7.1,7.1,0,0,0-4.76-1.62,7,7,0,0,0-2.6.48,7.36,7.36,0,0,0-2.16,1.3,7.49,7.49,0,0,0-1.56,1.84,5.49,5.49,0,0,0-.73,2.16Z" style="fill:#b3b3b3"></path><path d="M702.5,202.33h18.19a20.74,20.74,0,0,1,6.33.93,14.94,14.94,0,0,1,5,2.63,11.79,11.79,0,0,1,3.26,4.19,13.05,13.05,0,0,1,1.18,5.68,10.66,10.66,0,0,1-1.57,5.83,10.94,10.94,0,0,1-4.26,3.91,13.29,13.29,0,0,1,6.54,4.58,12.23,12.23,0,0,1,2.27,7.43,14.44,14.44,0,0,1-1.24,6.11,12.77,12.77,0,0,1-3.52,4.58,15.6,15.6,0,0,1-5.58,2.88,25.52,25.52,0,0,1-7.35,1H702.5Zm17.13,19.83a7.3,7.3,0,0,0,4.58-1.39,5.51,5.51,0,0,0,0-8.17,7.36,7.36,0,0,0-4.58-1.39H713v10.95Zm1.49,21a8.83,8.83,0,0,0,5.47-1.56,6.17,6.17,0,0,0,0-9.2,8.66,8.66,0,0,0-5.47-1.6H713v12.36Z" style="fill:#fc705a"></path><path d="M769.51,217h10.38v35.11H769.51V247.6a11.4,11.4,0,0,1-4.16,3.94,12.2,12.2,0,0,1-6.07,1.46q-6,0-9.45-3.84t-3.41-10.52V217h10.37v19.19a8.19,8.19,0,0,0,1.6,5.4,5.63,5.63,0,0,0,4.58,1.92,5.91,5.91,0,0,0,4.76-2.1,8.77,8.77,0,0,0,1.78-5.86Z" style="fill:#fc705a"></path><path d="M800.49,224.36a3.84,3.84,0,0,0-2.34.68,2.06,2.06,0,0,0-.93,1.74c0,1.28,1,2.18,2.92,2.7l4.4,1.13a15.85,15.85,0,0,1,7.57,3.95,8.89,8.89,0,0,1,2.6,6.43,10.93,10.93,0,0,1-1.07,4.83,11.38,11.38,0,0,1-2.95,3.8,13.63,13.63,0,0,1-4.48,2.49,17.39,17.39,0,0,1-5.65.89,17.94,17.94,0,0,1-9.16-2.27,13.43,13.43,0,0,1-5.69-6.33l8.39-4.62a8.38,8.38,0,0,0,2.77,3.48,6.28,6.28,0,0,0,3.77,1.28,4.56,4.56,0,0,0,2.66-.71,2.26,2.26,0,0,0,1-2c0-1.23-1.07-2.1-3.2-2.63l-4.12-1q-10-2.35-10-10.8a10.47,10.47,0,0,1,3.77-8.17,13,13,0,0,1,4.3-2.35,17,17,0,0,1,5.5-.85,16.19,16.19,0,0,1,4.41.6,17.35,17.35,0,0,1,4,1.67,14.41,14.41,0,0,1,3.27,2.56,12.19,12.19,0,0,1,2.27,3.34L806,228.7a7.23,7.23,0,0,0-2.35-3.17A5.29,5.29,0,0,0,800.49,224.36Z" style="fill:#fc705a"></path><path d="M832.26,206.81a6.06,6.06,0,0,1-.46,2.31,6.15,6.15,0,0,1-1.28,1.92,6.6,6.6,0,0,1-1.92,1.31,5.77,5.77,0,0,1-2.38.5,5.7,5.7,0,0,1-2.38-.5,6.34,6.34,0,0,1-1.92-1.31,6,6,0,0,1-1.28-1.92,6,6,0,0,1,0-4.62,6,6,0,0,1,1.28-1.92,6.34,6.34,0,0,1,1.92-1.31,5.7,5.7,0,0,1,2.38-.5,5.77,5.77,0,0,1,2.38.5,6.6,6.6,0,0,1,1.92,1.31,6.15,6.15,0,0,1,1.28,1.92A6,6,0,0,1,832.26,206.81ZM821,252.08V217h10.38v35.11Z" style="fill:#fc705a"></path><path d="M850.87,252.08H840.5V217h10.37v4.48a11.52,11.52,0,0,1,4.23-4,12.59,12.59,0,0,1,6.15-1.42q6,0,9.49,3.83t3.44,10.52v21.68H863.81V232.82a8,8,0,0,0-1.64-5.37,5.89,5.89,0,0,0-4.69-1.88,6,6,0,0,0-4.79,2.1,8.53,8.53,0,0,0-1.82,5.79Z" style="fill:#fc705a"></path><path d="M915.76,243.69a16.47,16.47,0,0,1-6.36,6.82,19,19,0,0,1-9.92,2.49,20.26,20.26,0,0,1-7.53-1.35,17,17,0,0,1-5.86-3.8,17.39,17.39,0,0,1-3.84-5.87,19.69,19.69,0,0,1-1.39-7.46,19.24,19.24,0,0,1,1.39-7.35,17.75,17.75,0,0,1,3.84-5.86,17.53,17.53,0,0,1,5.75-3.88,19.73,19.73,0,0,1,14.5,0,16.42,16.42,0,0,1,5.65,3.88,17.76,17.76,0,0,1,3.66,5.93,21.22,21.22,0,0,1,1.31,7.57c0,.61,0,1.14,0,1.56a8.15,8.15,0,0,1-.11,1H891a6.92,6.92,0,0,0,.85,2.84,7.72,7.72,0,0,0,1.88,2.24,9,9,0,0,0,5.72,2,8.23,8.23,0,0,0,4.62-1.14,9.53,9.53,0,0,0,2.91-3.12Zm-9-13.08a7,7,0,0,0-2.49-4.65,8.58,8.58,0,0,0-8.24-1.28,8.5,8.5,0,0,0-2.42,1.46,8.26,8.26,0,0,0-1.74,2.06,5.89,5.89,0,0,0-.81,2.41Z" style="fill:#fc705a"></path><path d="M935.44,224.36a3.89,3.89,0,0,0-2.35.68,2.08,2.08,0,0,0-.92,1.74q0,1.92,2.91,2.7l4.41,1.13a15.89,15.89,0,0,1,7.57,3.95,8.88,8.88,0,0,1,2.59,6.43,10.92,10.92,0,0,1-1.06,4.83,11.64,11.64,0,0,1-3,3.8,13.63,13.63,0,0,1-4.48,2.49,17.39,17.39,0,0,1-5.65.89,18,18,0,0,1-9.17-2.27,13.41,13.41,0,0,1-5.68-6.33l8.38-4.62a8.54,8.54,0,0,0,2.77,3.48,6.31,6.31,0,0,0,3.77,1.28,4.52,4.52,0,0,0,2.66-.71,2.27,2.27,0,0,0,1-2c0-1.23-1.07-2.1-3.2-2.63l-4.12-1q-10-2.35-10-10.8a10.42,10.42,0,0,1,3.76-8.17,13.17,13.17,0,0,1,4.3-2.35,17.07,17.07,0,0,1,5.51-.85,16.29,16.29,0,0,1,4.41.6,17.27,17.27,0,0,1,4,1.67,14,14,0,0,1,3.27,2.56,12.22,12.22,0,0,1,2.28,3.34L941,228.7a7.14,7.14,0,0,0-2.34-3.17A5.31,5.31,0,0,0,935.44,224.36Z" style="fill:#fc705a"></path><path d="M967.84,224.36a3.84,3.84,0,0,0-2.34.68,2.06,2.06,0,0,0-.93,1.74c0,1.28,1,2.18,2.92,2.7l4.4,1.13a15.85,15.85,0,0,1,7.57,3.95,8.88,8.88,0,0,1,2.59,6.43,10.92,10.92,0,0,1-1.06,4.83,11.51,11.51,0,0,1-3,3.8,13.63,13.63,0,0,1-4.48,2.49,17.39,17.39,0,0,1-5.65.89,18,18,0,0,1-9.17-2.27,13.41,13.41,0,0,1-5.68-6.33l8.39-4.62a8.38,8.38,0,0,0,2.77,3.48,6.28,6.28,0,0,0,3.76,1.28,4.57,4.57,0,0,0,2.67-.71,2.28,2.28,0,0,0,1-2c0-1.23-1.07-2.1-3.2-2.63l-4.12-1q-10-2.35-10-10.8a10.39,10.39,0,0,1,3.77-8.17,13,13,0,0,1,4.3-2.35,17,17,0,0,1,5.5-.85,16.19,16.19,0,0,1,4.41.6,17.35,17.35,0,0,1,4,1.67,14.41,14.41,0,0,1,3.27,2.56,12.41,12.41,0,0,1,2.27,3.34l-8.46,4.48a7.14,7.14,0,0,0-2.34-3.17A5.29,5.29,0,0,0,967.84,224.36Z" style="fill:#fc705a"></path><path d="M446.88,202.83l19.95,49.7H455.68l-4.18-10.72h-19l-4.19,10.72H417.42l20-49.7ZM435.8,232.65h12.5L442,216.39Z" style="fill:#033333"></path><path d="M494,217.46h10.37v35.07H494v-4.47A11.37,11.37,0,0,1,489.8,252a12.2,12.2,0,0,1-6.07,1.46q-6,0-9.44-3.84t-3.41-10.51V217.46h10.37v19.17a8.19,8.19,0,0,0,1.59,5.39,5.63,5.63,0,0,0,4.58,1.92,5.93,5.93,0,0,0,4.76-2.09A8.82,8.82,0,0,0,494,236Z" style="fill:#033333"></path><path d="M528.39,242l-7.31,10.51H509.57l13-17.75-12.43-17.32H522l6.67,9.8,6.89-9.8h11.5l-12.42,17,12.92,18H535.77Z" style="fill:#033333"></path><path d="M583.13,244.15a16.53,16.53,0,0,1-6.36,6.82,18.88,18.88,0,0,1-9.9,2.49,20.5,20.5,0,0,1-7.53-1.35,17.06,17.06,0,0,1-5.85-3.8,17.59,17.59,0,0,1-3.84-5.86,19.68,19.68,0,0,1-1.38-7.45,19.2,19.2,0,0,1,1.38-7.35,18,18,0,0,1,3.84-5.86,17.35,17.35,0,0,1,5.75-3.87,18.48,18.48,0,0,1,7.2-1.38,18.7,18.7,0,0,1,7.28,1.38,16.35,16.35,0,0,1,5.65,3.87,17.68,17.68,0,0,1,3.65,5.93,20.91,20.91,0,0,1,1.32,7.56c0,.61,0,1.14,0,1.56a6.24,6.24,0,0,1-.11,1H558.42a7.19,7.19,0,0,0,.85,2.84,7.75,7.75,0,0,0,1.88,2.24,9,9,0,0,0,2.63,1.49,8.81,8.81,0,0,0,3.09.54,8.23,8.23,0,0,0,4.62-1.14,9.89,9.89,0,0,0,2.91-3.13Zm-9-13.06a7,7,0,0,0-2.48-4.65,8.58,8.58,0,0,0-8.24-1.28,8.53,8.53,0,0,0-4.15,3.52,6,6,0,0,0-.82,2.41Z" style="fill:#033333"></path><path d="M613,227.54a6.2,6.2,0,0,0-2.63-.43,8.18,8.18,0,0,0-6.74,3c-1.61,2-2.42,4.71-2.42,8.16v14.27H590.94V217.46h10.22v5.75a11.34,11.34,0,0,1,4.05-4.79,10.66,10.66,0,0,1,6-1.74,7.82,7.82,0,0,1,1.1.07,2.84,2.84,0,0,1,.68.14Z" style="fill:#033333"></path><path d="M641.14,227.54a6.24,6.24,0,0,0-2.63-.43,8.2,8.2,0,0,0-6.75,3c-1.61,2-2.41,4.71-2.41,8.16v14.27h-10.3V217.46h10.23v5.75a11.2,11.2,0,0,1,4.05-4.79,10.66,10.66,0,0,1,6-1.74,7.82,7.82,0,0,1,1.1.07,2.84,2.84,0,0,1,.68.14Z" style="fill:#033333"></path><path d="M679.19,244.15a16.51,16.51,0,0,1-6.35,6.82,18.92,18.92,0,0,1-9.91,2.49,20.45,20.45,0,0,1-7.52-1.35,17,17,0,0,1-5.86-3.8,17.75,17.75,0,0,1-3.84-5.86,19.68,19.68,0,0,1-1.38-7.45,19.2,19.2,0,0,1,1.38-7.35,18.17,18.17,0,0,1,3.84-5.86,17.35,17.35,0,0,1,5.75-3.87,19.68,19.68,0,0,1,14.48,0,16.17,16.17,0,0,1,5.65,3.87,17.68,17.68,0,0,1,3.65,5.93,20.91,20.91,0,0,1,1.32,7.56c0,.61,0,1.14,0,1.56a8.08,8.08,0,0,1-.1,1H654.48a7,7,0,0,0,.86,2.84,7.59,7.59,0,0,0,1.88,2.24,9,9,0,0,0,5.71,2,8.23,8.23,0,0,0,4.62-1.14,9.89,9.89,0,0,0,2.91-3.13Zm-8.94-13.06a7.07,7.07,0,0,0-2.49-4.65,8.58,8.58,0,0,0-8.24-1.28,8.53,8.53,0,0,0-4.15,3.52,6,6,0,0,0-.82,2.41Z" style="fill:#033333"></path></svg> 