<?xml version="1.0" encoding="UTF-8"?> <svg xmlns="http://www.w3.org/2000/svg" id="Calque_1" data-name="Calque 1" viewBox="0 0 1142 404"><circle cx="205.16" cy="202" r="147.27" style="fill:#e6e6e6;opacity:0.4"></circle><circle cx="205.16" cy="202" r="130.77" style="fill:#fc705a"></circle><path d="M298.56,206.16A4.16,4.16,0,0,0,294.4,202H251.7v37.78a3,3,0,0,1-3,3h0a3,3,0,0,1-3-3l0-75.71a11.39,11.39,0,1,0-22.78,0l-.07,106.11a3.1,3.1,0,0,1-6.19,0l.06-136.36a11.53,11.53,0,0,0-23.05,0l-.14,136.36a3.1,3.1,0,0,1-3.3,3.09,3.18,3.18,0,0,1-2.89-3.2V164.3a11.58,11.58,0,0,0-11.61-11.62,11.4,11.4,0,0,0-11.17,11.39l.05,75.71a3,3,0,0,1-3,3h0a3,3,0,0,1-3-3V202H115.93a4.16,4.16,0,0,0-4.16,4.16h0a4.16,4.16,0,0,0,4.16,4.16h34.23V239.7a11.58,11.58,0,0,0,11.62,11.62A11.4,11.4,0,0,0,173,239.93l-.06-75.71a3,3,0,0,1,3-3h0a3,3,0,0,1,3,3V270a11.71,11.71,0,0,0,11.75,11.75,11.52,11.52,0,0,0,11.3-11.52l.14-136.36a3.1,3.1,0,0,1,6.19,0l-.06,136.36a11.53,11.53,0,0,0,23.05,0v-106a3,3,0,0,1,3-3h0a3,3,0,0,1,3,3l0,75.71a11.4,11.4,0,0,0,11.17,11.39,11.58,11.58,0,0,0,11.61-11.62V210.32H294.4a4.16,4.16,0,0,0,4.16-4.16Z" style="fill:#fff"></path><path d="M429.89,177.16h-9.46V132.73h14.79a21.5,21.5,0,0,1,6.61,1,14.61,14.61,0,0,1,5.11,2.76,12.92,12.92,0,0,1,3.33,4.44,14.52,14.52,0,0,1,1.2,6.07,12.56,12.56,0,0,1-2.57,8,14.94,14.94,0,0,1-6.57,4.79l12.25,17.39H443.35l-10.92-16.25h-2.54Zm0-24.12h5.4a7.15,7.15,0,0,0,4.73-1.56,5.34,5.34,0,0,0,1.87-4.34,5.24,5.24,0,0,0-1.87-4.35,7.33,7.33,0,0,0-4.73-1.49h-5.4Z" style="fill:#b3b3b3"></path><path d="M486.89,169.67a14.78,14.78,0,0,1-5.68,6.1,16.9,16.9,0,0,1-8.85,2.22,18.2,18.2,0,0,1-6.73-1.21,15.19,15.19,0,0,1-5.24-3.39,15.73,15.73,0,0,1-3.43-5.24,17.63,17.63,0,0,1-1.23-6.67,17.23,17.23,0,0,1,1.23-6.57,16.1,16.1,0,0,1,3.43-5.23,15.48,15.48,0,0,1,5.14-3.46,17.53,17.53,0,0,1,13,0,14.44,14.44,0,0,1,5,3.46,15.68,15.68,0,0,1,3.27,5.3,18.85,18.85,0,0,1,1.17,6.76c0,.55,0,1,0,1.39a7.07,7.07,0,0,1-.09.89H464.8a6.34,6.34,0,0,0,.77,2.54,6.82,6.82,0,0,0,1.68,2,8.06,8.06,0,0,0,5.11,1.81,7.3,7.3,0,0,0,4.12-1,8.57,8.57,0,0,0,2.61-2.79Zm-8-11.68a6.35,6.35,0,0,0-2.23-4.16,7.06,7.06,0,0,0-4.76-1.62,7,7,0,0,0-2.6.48,7.52,7.52,0,0,0-3.71,3.14,5.33,5.33,0,0,0-.73,2.16Z" style="fill:#b3b3b3"></path><path d="M504.48,152.41a3.48,3.48,0,0,0-2.1.6,1.84,1.84,0,0,0-.82,1.55c0,1.15.86,1.95,2.6,2.42l3.94,1a14.2,14.2,0,0,1,6.76,3.52,8,8,0,0,1,2.31,5.75,9.73,9.73,0,0,1-.95,4.32,10.21,10.21,0,0,1-2.63,3.39,12.13,12.13,0,0,1-4,2.22,15.5,15.5,0,0,1-5,.8,16,16,0,0,1-8.19-2,12,12,0,0,1-5.08-5.65l7.49-4.13a7.63,7.63,0,0,0,2.48,3.11,5.68,5.68,0,0,0,3.37,1.14,4.15,4.15,0,0,0,2.38-.63,2,2,0,0,0,.92-1.78c0-1.1-1-1.88-2.86-2.35l-3.68-.89q-9-2.09-8.95-9.65a9.4,9.4,0,0,1,3.36-7.3,12,12,0,0,1,3.84-2.09,15.2,15.2,0,0,1,4.92-.76,14.36,14.36,0,0,1,3.94.54A15.76,15.76,0,0,1,512,147a12.88,12.88,0,0,1,2.92,2.28,10.76,10.76,0,0,1,2,3l-7.55,4a6.38,6.38,0,0,0-2.1-2.83A4.69,4.69,0,0,0,504.48,152.41Z" style="fill:#b3b3b3"></path><path d="M521.3,161.48a16.2,16.2,0,0,1,4.89-11.74,16.59,16.59,0,0,1,5.39-3.49,18.47,18.47,0,0,1,13.46,0,16.59,16.59,0,0,1,5.39,3.49,16.45,16.45,0,0,1,0,23.49,16.76,16.76,0,0,1-5.39,3.49,18.47,18.47,0,0,1-13.46,0,16.76,16.76,0,0,1-5.39-3.49,16.2,16.2,0,0,1-4.89-11.75Zm9.14,0a8,8,0,0,0,.63,3.18,8.61,8.61,0,0,0,1.69,2.54,7.7,7.7,0,0,0,2.47,1.71,7.54,7.54,0,0,0,3.08.63,7.8,7.8,0,0,0,5.55-2.34,8.61,8.61,0,0,0,1.69-2.54,8.32,8.32,0,0,0,0-6.35,8.61,8.61,0,0,0-1.69-2.54,7.61,7.61,0,0,0-2.5-1.71,7.49,7.49,0,0,0-3.05-.64,7.39,7.39,0,0,0-3.08.64,7.7,7.7,0,0,0-2.47,1.71,8.61,8.61,0,0,0-1.69,2.54A7.9,7.9,0,0,0,530.44,161.48Z" style="fill:#b3b3b3"></path><path d="M570.87,177.16h-9.26V145.8h9.26v4a10.36,10.36,0,0,1,3.78-3.55,11.25,11.25,0,0,1,5.49-1.27,10.81,10.81,0,0,1,8.48,3.43q3.07,3.42,3.08,9.39v19.36h-9.27V160a7.11,7.11,0,0,0-1.46-4.79,5.27,5.27,0,0,0-4.19-1.69,5.39,5.39,0,0,0-4.29,1.88,7.64,7.64,0,0,0-1.62,5.17Z" style="fill:#b3b3b3"></path><path d="M631.75,145.8v31.36h-9.08V173a10.64,10.64,0,0,1-4.34,3.68,14.06,14.06,0,0,1-11.68,0,14.74,14.74,0,0,1-4.7-3.46,16.06,16.06,0,0,1-3.14-5.2,18,18,0,0,1-1.15-6.51,17.79,17.79,0,0,1,1.15-6.47A16.55,16.55,0,0,1,602,149.8a14.68,14.68,0,0,1,4.7-3.49,13.66,13.66,0,0,1,5.87-1.27,14,14,0,0,1,5.81,1.21,10.21,10.21,0,0,1,4.34,3.62V145.8Zm-24.88,15.68a8,8,0,0,0,.63,3.18,8.52,8.52,0,0,0,1.72,2.57,8,8,0,0,0,11.42,0,8.71,8.71,0,0,0,1.72-2.57,8.32,8.32,0,0,0,0-6.35,8.71,8.71,0,0,0-1.72-2.57,8,8,0,0,0-11.42,0,8.52,8.52,0,0,0-1.72,2.57A7.9,7.9,0,0,0,606.87,161.48Z" style="fill:#b3b3b3"></path><path d="M649.21,177.16h-9.27V145.8h9.27v4a10.26,10.26,0,0,1,3.77-3.55,11.26,11.26,0,0,1,5.5-1.27,10.79,10.79,0,0,1,8.47,3.43q3.07,3.42,3.08,9.39v19.36h-9.27V160a7.11,7.11,0,0,0-1.46-4.79,5.25,5.25,0,0,0-4.19-1.69,5.37,5.37,0,0,0-4.28,1.88,7.64,7.64,0,0,0-1.62,5.17Z" style="fill:#b3b3b3"></path><path d="M676,161.48a17.23,17.23,0,0,1,1.23-6.57,15.86,15.86,0,0,1,3.46-5.23,15.46,15.46,0,0,1,5.3-3.46,17.87,17.87,0,0,1,6.76-1.24,18.63,18.63,0,0,1,4.1.47,13.16,13.16,0,0,1,3.77,1.5v8.69a11.59,11.59,0,0,0-6.79-2.28,9.29,9.29,0,0,0-3.39.6,8.11,8.11,0,0,0-2.7,1.68,7.6,7.6,0,0,0-1.78,2.57,8.8,8.8,0,0,0,0,6.54,7.5,7.5,0,0,0,1.78,2.57,8.11,8.11,0,0,0,2.7,1.68,9.09,9.09,0,0,0,3.39.61,10.09,10.09,0,0,0,3.62-.67,13.09,13.09,0,0,0,3.24-1.74V176a14.75,14.75,0,0,1-4,1.55,18.47,18.47,0,0,1-10.76-.73,15.74,15.74,0,0,1-5.27-3.36,15.18,15.18,0,0,1-3.46-5.21A17.8,17.8,0,0,1,676,161.48Z" style="fill:#b3b3b3"></path><path d="M736.49,169.67a14.85,14.85,0,0,1-5.68,6.1A17,17,0,0,1,722,178a18.27,18.27,0,0,1-6.73-1.21,15.15,15.15,0,0,1-5.23-3.39,15.58,15.58,0,0,1-3.43-5.24,17.45,17.45,0,0,1-1.24-6.67,17,17,0,0,1,1.24-6.57,15.94,15.94,0,0,1,3.43-5.23,15.38,15.38,0,0,1,5.14-3.46,16.39,16.39,0,0,1,6.44-1.24,16.6,16.6,0,0,1,6.51,1.24,14.31,14.31,0,0,1,5,3.46,15.68,15.68,0,0,1,3.27,5.3,18.64,18.64,0,0,1,1.18,6.76c0,.55,0,1,0,1.39s-.06.68-.1.89h-23a6.33,6.33,0,0,0,.76,2.54,6.82,6.82,0,0,0,1.68,2,8.06,8.06,0,0,0,5.11,1.81,7.34,7.34,0,0,0,4.13-1,8.65,8.65,0,0,0,2.6-2.79Zm-8-11.68a6.29,6.29,0,0,0-2.22-4.16,7.1,7.1,0,0,0-4.76-1.62,7,7,0,0,0-2.6.48,7.36,7.36,0,0,0-2.16,1.3,7.49,7.49,0,0,0-1.56,1.84,5.49,5.49,0,0,0-.73,2.16Z" style="fill:#b3b3b3"></path><path d="M752.5,202.62h21.58a24.67,24.67,0,0,1,7.5,1.1,17.77,17.77,0,0,1,5.94,3.12,14.12,14.12,0,0,1,3.88,5,15.62,15.62,0,0,1,1.39,6.74,12.78,12.78,0,0,1-1.85,6.92,13.07,13.07,0,0,1-5.06,4.63,15.75,15.75,0,0,1,7.75,5.44,14.46,14.46,0,0,1,2.7,8.81,17.2,17.2,0,0,1-1.47,7.25,15.39,15.39,0,0,1-4.17,5.44,18.77,18.77,0,0,1-6.62,3.41,30.08,30.08,0,0,1-8.73,1.18H752.5Zm20.31,23.52a8.71,8.71,0,0,0,5.44-1.64,6.55,6.55,0,0,0,0-9.7,8.71,8.71,0,0,0-5.44-1.64h-7.92v13ZM774.58,251a10.47,10.47,0,0,0,6.5-1.86,7.32,7.32,0,0,0,0-10.91,10.29,10.29,0,0,0-6.5-1.9h-9.69V251Z" style="fill:#fc705a"></path><path d="M832,220H844.3v41.64H832v-5.31a13.58,13.58,0,0,1-4.93,4.68,14.52,14.52,0,0,1-7.21,1.73q-7.17,0-11.21-4.56t-4-12.47V220H816.9v22.76a9.68,9.68,0,0,0,1.9,6.4,6.65,6.65,0,0,0,5.43,2.28,7,7,0,0,0,5.65-2.49A10.38,10.38,0,0,0,832,242Z" style="fill:#fc705a"></path><path d="M868.74,228.75a4.54,4.54,0,0,0-2.78.81,2.45,2.45,0,0,0-1.1,2.06q0,2.28,3.46,3.2l5.22,1.35a18.7,18.7,0,0,1,9,4.68,10.55,10.55,0,0,1,3.08,7.63,12.87,12.87,0,0,1-1.27,5.73,13.7,13.7,0,0,1-3.49,4.51,16.1,16.1,0,0,1-5.31,2.95,20.7,20.7,0,0,1-6.71,1.06A21.2,21.2,0,0,1,858,260a15.87,15.87,0,0,1-6.74-7.5l9.94-5.48a10.14,10.14,0,0,0,3.29,4.13,7.52,7.52,0,0,0,4.47,1.51,5.48,5.48,0,0,0,3.16-.84,2.71,2.71,0,0,0,1.22-2.36q0-2.19-3.79-3.12l-4.89-1.18q-11.88-2.77-11.89-12.81a12.39,12.39,0,0,1,4.47-9.69,15.83,15.83,0,0,1,5.1-2.79,20.41,20.41,0,0,1,6.53-1,19,19,0,0,1,5.23.72,20.82,20.82,0,0,1,4.72,2,17.24,17.24,0,0,1,3.88,3,14.84,14.84,0,0,1,2.7,4l-10,5.31a8.24,8.24,0,0,0-2.78-3.75A6.25,6.25,0,0,0,868.74,228.75Z" style="fill:#fc705a"></path><path d="M906.42,207.93a6.91,6.91,0,0,1-.55,2.74,7,7,0,0,1-1.52,2.28,7.4,7.4,0,0,1-2.27,1.56,7.06,7.06,0,0,1-5.65,0,7.57,7.57,0,0,1-2.28-1.56,7.14,7.14,0,0,1,0-10,7.57,7.57,0,0,1,2.28-1.56,7.06,7.06,0,0,1,5.65,0,7.4,7.4,0,0,1,2.27,1.56,7.07,7.07,0,0,1,1.52,2.27A7,7,0,0,1,906.42,207.93Zm-13.32,53.7V220h12.31v41.64Z" style="fill:#fc705a"></path><path d="M928.5,261.63H916.2V220h12.3v5.31a13.75,13.75,0,0,1,5-4.72,14.88,14.88,0,0,1,7.29-1.69q7.17,0,11.25,4.55t4.09,12.48v25.71H943.84V238.79a9.44,9.44,0,0,0-1.93-6.37,7,7,0,0,0-5.57-2.23,7.17,7.17,0,0,0-5.69,2.48,10.19,10.19,0,0,0-2.15,6.87Z" style="fill:#fc705a"></path><path d="M1005.46,251.68a19.57,19.57,0,0,1-7.54,8.1,22.56,22.56,0,0,1-11.76,3,24,24,0,0,1-8.93-1.61,20.12,20.12,0,0,1-7-4.51,20.76,20.76,0,0,1-4.55-7,23.23,23.23,0,0,1-1.64-8.85,22.69,22.69,0,0,1,1.64-8.73,21.48,21.48,0,0,1,4.55-7,20.65,20.65,0,0,1,6.83-4.59,21.79,21.79,0,0,1,8.55-1.65,22,22,0,0,1,8.64,1.65,19.28,19.28,0,0,1,6.71,4.59,21.14,21.14,0,0,1,4.34,7,25,25,0,0,1,1.56,9c0,.73,0,1.35,0,1.85a10.22,10.22,0,0,1-.13,1.18h-30.6a8.39,8.39,0,0,0,1,3.37,9.28,9.28,0,0,0,2.23,2.66,10.62,10.62,0,0,0,6.79,2.4,9.77,9.77,0,0,0,5.48-1.35,11.58,11.58,0,0,0,3.46-3.71Zm-10.62-15.51a8.34,8.34,0,0,0-3-5.52,9.42,9.42,0,0,0-6.32-2.15,9.28,9.28,0,0,0-3.45.63,10,10,0,0,0-2.87,1.73,10.18,10.18,0,0,0-2.07,2.45,7.26,7.26,0,0,0-1,2.86Z" style="fill:#fc705a"></path><path d="M1028.81,228.75a4.56,4.56,0,0,0-2.78.81,2.44,2.44,0,0,0-1.09,2.06q0,2.28,3.45,3.2l5.23,1.35a18.71,18.71,0,0,1,9,4.68,10.55,10.55,0,0,1,3.08,7.63,13,13,0,0,1-1.26,5.73,13.73,13.73,0,0,1-3.5,4.51,16.1,16.1,0,0,1-5.31,2.95,20.64,20.64,0,0,1-6.7,1.06A21.24,21.24,0,0,1,1018,260a15.87,15.87,0,0,1-6.74-7.5l10-5.48a10,10,0,0,0,3.28,4.13,7.54,7.54,0,0,0,4.47,1.51,5.46,5.46,0,0,0,3.16-.84,2.69,2.69,0,0,0,1.22-2.36q0-2.19-3.79-3.12l-4.89-1.18q-11.88-2.77-11.88-12.81a12.42,12.42,0,0,1,4.46-9.69,15.83,15.83,0,0,1,5.1-2.79,20.47,20.47,0,0,1,6.54-1,19,19,0,0,1,5.22.72,20.82,20.82,0,0,1,4.72,2,17,17,0,0,1,3.88,3,14.84,14.84,0,0,1,2.7,4l-10,5.31a8.39,8.39,0,0,0-2.78-3.75A6.29,6.29,0,0,0,1028.81,228.75Z" style="fill:#fc705a"></path><path d="M1067.25,228.75a4.54,4.54,0,0,0-2.78.81,2.45,2.45,0,0,0-1.1,2.06q0,2.28,3.46,3.2l5.22,1.35a18.7,18.7,0,0,1,9,4.68,10.55,10.55,0,0,1,3.08,7.63,12.87,12.87,0,0,1-1.27,5.73,13.7,13.7,0,0,1-3.49,4.51,16.05,16.05,0,0,1-5.32,2.95,20.6,20.6,0,0,1-6.7,1.06,21.2,21.2,0,0,1-10.87-2.7,15.87,15.87,0,0,1-6.74-7.5l9.94-5.48a10.06,10.06,0,0,0,3.29,4.13,7.5,7.5,0,0,0,4.47,1.51,5.48,5.48,0,0,0,3.16-.84,2.71,2.71,0,0,0,1.22-2.36q0-2.19-3.79-3.12l-4.89-1.18q-11.89-2.77-11.89-12.81a12.39,12.39,0,0,1,4.47-9.69,15.62,15.62,0,0,1,5.1-2.79,20.37,20.37,0,0,1,6.53-1,19,19,0,0,1,5.23.72,20.82,20.82,0,0,1,4.72,2,17.24,17.24,0,0,1,3.88,3,14.84,14.84,0,0,1,2.7,4l-10,5.31a8.31,8.31,0,0,0-2.78-3.75A6.27,6.27,0,0,0,1067.25,228.75Z" style="fill:#fc705a"></path><path d="M482.55,232.58a30,30,0,0,1-2.42,12.07,30.82,30.82,0,0,1-6.63,9.78,31.39,31.39,0,0,1-9.9,6.58,31.62,31.62,0,0,1-24.31,0,31.43,31.43,0,0,1-9.91-6.58,31,31,0,0,1-6.63-9.78,31.31,31.31,0,0,1,0-24.14,30.83,30.83,0,0,1,6.63-9.77,31.29,31.29,0,0,1,9.91-6.59,31.74,31.74,0,0,1,24.31,0,31.25,31.25,0,0,1,9.9,6.59,30.67,30.67,0,0,1,6.63,9.77A30.05,30.05,0,0,1,482.55,232.58Zm-13.09,0a18.62,18.62,0,0,0-1.4-7.22,17.84,17.84,0,0,0-9.52-9.78,18.22,18.22,0,0,0-14.2,0,18.44,18.44,0,0,0-5.69,3.91,18.17,18.17,0,0,0-3.82,5.87,19.22,19.22,0,0,0,0,14.45,17.89,17.89,0,0,0,9.51,9.77,18.11,18.11,0,0,0,14.2,0,17.86,17.86,0,0,0,9.52-9.77A18.7,18.7,0,0,0,469.46,232.58Z" style="fill:#033333"></path><path d="M517.91,232.41a7.36,7.36,0,0,0-3.14-.51,9.82,9.82,0,0,0-8.08,3.57q-2.9,3.57-2.89,9.78v17.08H491.48v-42h12.24v6.89a13.51,13.51,0,0,1,4.84-5.74,12.79,12.79,0,0,1,7.23-2.08,11.11,11.11,0,0,1,1.31.08,3.76,3.76,0,0,1,.81.17Z" style="fill:#033333"></path><path d="M537.55,202.83v59.5H525.14v-59.5Z" style="fill:#033333"></path><path d="M587.7,252.3a19.77,19.77,0,0,1-7.61,8.16,22.63,22.63,0,0,1-11.86,3,24.2,24.2,0,0,1-9-1.62,20.19,20.19,0,0,1-7-4.55,20.71,20.71,0,0,1-4.59-7,23.37,23.37,0,0,1-1.66-8.92,22.83,22.83,0,0,1,1.66-8.8,21.32,21.32,0,0,1,4.59-7,20.89,20.89,0,0,1,6.88-4.64,23.6,23.6,0,0,1,17.34,0,19.51,19.51,0,0,1,6.76,4.64,21.3,21.3,0,0,1,4.38,7.09,25.2,25.2,0,0,1,1.57,9.06c0,.73,0,1.36,0,1.87a8.74,8.74,0,0,1-.13,1.19H558.12a8.43,8.43,0,0,0,1,3.4,9,9,0,0,0,2.25,2.67,10.68,10.68,0,0,0,6.84,2.43,9.86,9.86,0,0,0,5.52-1.36,11.66,11.66,0,0,0,3.49-3.74ZM577,236.66a8.49,8.49,0,0,0-3-5.57,10.3,10.3,0,0,0-9.86-1.53,10.22,10.22,0,0,0-5,4.21,7.1,7.1,0,0,0-1,2.89Zm-15.47-23,8.5-12.5h12.83l-11.05,12.5Z" style="fill:#033333"></path><path d="M640.65,220.34v42H628.49v-5.61a14.18,14.18,0,0,1-5.82,4.93,18,18,0,0,1-7.78,1.7,18.14,18.14,0,0,1-7.86-1.7,20,20,0,0,1-6.29-4.63,21.68,21.68,0,0,1-4.21-7,24.39,24.39,0,0,1-1.53-8.71,24,24,0,0,1,1.53-8.67,22.12,22.12,0,0,1,4.21-7A19.67,19.67,0,0,1,607,221a18.28,18.28,0,0,1,7.86-1.7,18.79,18.79,0,0,1,7.78,1.62,13.61,13.61,0,0,1,5.82,4.84v-5.44Zm-33.32,21a10.51,10.51,0,0,0,.85,4.25,11.37,11.37,0,0,0,2.29,3.44,10.51,10.51,0,0,0,7.65,3.19,10.64,10.64,0,0,0,4.25-.85,10.53,10.53,0,0,0,3.4-2.34,11.4,11.4,0,0,0,2.3-3.44,11.05,11.05,0,0,0,0-8.5,11.45,11.45,0,0,0-2.3-3.45,10.35,10.35,0,0,0-3.4-2.33,10.73,10.73,0,0,0-11.9,2.33,11.42,11.42,0,0,0-2.29,3.45A10.48,10.48,0,0,0,607.33,241.34Z" style="fill:#033333"></path><path d="M664,262.33H651.61v-42H664v5.36a13.81,13.81,0,0,1,5.06-4.76,15,15,0,0,1,7.35-1.7q7.23,0,11.35,4.59t4.12,12.58v25.92H679.49v-23a9.51,9.51,0,0,0-2-6.42,7,7,0,0,0-5.61-2.25,7.22,7.22,0,0,0-5.74,2.5,10.31,10.31,0,0,0-2.17,6.93Z" style="fill:#033333"></path><path d="M716.13,229.18a4.63,4.63,0,0,0-2.81.81,2.48,2.48,0,0,0-1.1,2.08q0,2.3,3.48,3.23l5.27,1.36q6,1.53,9.06,4.72a10.65,10.65,0,0,1,3.1,7.69,13.07,13.07,0,0,1-1.28,5.78,13.81,13.81,0,0,1-3.52,4.55,16.59,16.59,0,0,1-5.36,3,21,21,0,0,1-6.76,1.06,21.42,21.42,0,0,1-11-2.72,16,16,0,0,1-6.8-7.57l10-5.52a10.19,10.19,0,0,0,3.31,4.16,7.59,7.59,0,0,0,4.51,1.53,5.51,5.51,0,0,0,3.19-.85,2.72,2.72,0,0,0,1.23-2.38q0-2.21-3.83-3.14L712,245.76q-12-2.81-12-12.92a12.54,12.54,0,0,1,4.5-9.78,15.76,15.76,0,0,1,5.14-2.8,20.51,20.51,0,0,1,6.59-1,19.27,19.27,0,0,1,5.27.72,20.73,20.73,0,0,1,4.76,2,17.09,17.09,0,0,1,3.91,3.06,14.55,14.55,0,0,1,2.72,4l-10.11,5.36a8.54,8.54,0,0,0-2.81-3.79A6.33,6.33,0,0,0,716.13,229.18Z" style="fill:#033333"></path></svg> 